<?xml version="1.0" encoding="utf-8" standalone="no"?>
<!DOCTYPE svg PUBLIC "-//W3C//DTD SVG 1.1//EN"
  "http://www.w3.org/Graphics/SVG/1.1/DTD/svg11.dtd">
<svg xmlns:xlink="http://www.w3.org/1999/xlink" width="720pt" height="324pt" viewBox="0 0 720 324" xmlns="http://www.w3.org/2000/svg" version="1.1">
 <metadata>
  <rdf:RDF xmlns:dc="http://purl.org/dc/elements/1.1/" xmlns:cc="http://creativecommons.org/ns#" xmlns:rdf="http://www.w3.org/1999/02/22-rdf-syntax-ns#">
   <cc:Work>
    <dc:type rdf:resource="http://purl.org/dc/dcmitype/StillImage"/>
    <dc:date>2025-09-11T20:57:36.696961</dc:date>
    <dc:format>image/svg+xml</dc:format>
    <dc:creator>
     <cc:Agent>
      <dc:title>Matplotlib v3.9.4, https://matplotlib.org/</dc:title>
     </cc:Agent>
    </dc:creator>
   </cc:Work>
  </rdf:RDF>
 </metadata>
 <defs>
  <style type="text/css">*{stroke-linejoin: round; stroke-linecap: butt}</style>
 </defs>
 <g id="figure_1">
  <g id="patch_1">
   <path d="M 0 324 
L 720 324 
L 720 0 
L 0 0 
z
" style="fill: #ffffff"/>
  </g>
  <g id="axes_1">
   <g id="patch_2">
    <path d="M 47.855 282.04 
L 709.2 282.04 
L 709.2 26.16 
L 47.855 26.16 
z
" style="fill: #ffffff"/>
   </g>
   <g id="line2d_1">
    <path d="M 77.916136 38.450479 
L 83.989093 38.613856 
L 90.06205 38.93486 
L 96.135007 39.053053 
L 102.207964 39.192524 
L 108.280921 39.320532 
L 114.353877 39.2275 
L 120.426834 39.21725 
L 126.499791 39.204532 
L 132.572748 39.128881 
L 138.645705 39.118187 
L 144.718662 39.207566 
L 150.791618 39.049884 
L 156.864575 38.975329 
L 162.937532 38.935372 
L 169.010489 38.812047 
L 175.083446 38.797554 
L 181.156403 38.668128 
L 187.22936 38.650955 
L 193.302316 38.682743 
L 199.375273 38.857272 
L 205.44823 38.956527 
L 211.521187 38.959804 
L 217.594144 38.967078 
L 223.667101 38.980025 
L 229.740057 38.958559 
L 235.813014 38.950431 
L 241.885971 38.927461 
L 247.958928 38.925985 
L 254.031885 43.339514 
L 260.104842 57.536961 
L 266.177798 66.958428 
L 272.250755 71.213997 
L 278.323712 70.403634 
L 284.396669 68.811539 
L 290.469626 67.245347 
L 296.542583 65.468974 
L 302.615539 58.090305 
L 308.688496 47.38775 
L 314.761453 41.500526 
L 320.83441 40.408836 
L 326.907367 40.325285 
L 332.980324 40.174922 
L 339.053281 39.896254 
L 345.126237 40.163835 
L 351.199194 40.151015 
L 357.272151 40.099387 
L 363.345108 39.870414 
L 369.418065 39.927618 
L 375.491022 39.840735 
L 381.563978 39.881911 
L 387.636935 39.681092 
L 393.709892 39.761296 
L 399.782849 39.679896 
L 405.855806 42.688846 
L 411.928763 52.304671 
L 418.001719 57.493756 
L 424.074676 61.915964 
L 430.147633 64.178952 
L 436.22059 63.363884 
L 442.293547 54.576363 
L 448.366504 42.137704 
L 454.439461 39.640927 
L 460.512417 39.155696 
L 466.585374 39.19392 
L 472.658331 39.413418 
L 478.731288 39.408615 
L 484.804245 39.411836 
L 490.877202 39.293631 
L 496.950158 39.229224 
L 503.023115 39.094693 
L 509.096072 39.066755 
L 515.169029 39.127371 
L 521.241986 39.002442 
L 527.314943 38.899238 
L 533.387899 38.887213 
L 539.460856 38.82803 
L 545.533813 38.700422 
L 551.60677 38.501936 
L 557.679727 38.396135 
L 563.752684 38.341298 
L 569.82564 38.34057 
L 575.898597 38.305934 
L 581.971554 38.335861 
L 588.044511 38.400982 
L 594.117468 38.493282 
L 600.190425 38.705287 
L 606.263382 38.883572 
L 612.336338 38.873265 
L 618.409295 38.966206 
L 624.482252 39.14649 
L 630.555209 39.282906 
L 636.628166 39.373152 
L 642.701123 39.445778 
L 648.774079 39.460157 
L 654.847036 39.382444 
L 660.919993 39.338537 
L 666.99295 39.207904 
L 673.065907 38.987038 
L 679.138864 39.219804 
" clip-path="url(#pc6ad665e88)" style="fill: none; stroke: #808080; stroke-width: 1.5; stroke-linecap: square"/>
   </g>
   <g id="line2d_2">
    <path d="M 77.916136 64.404479 
L 83.989093 63.970017 
L 90.06205 63.652021 
L 96.135007 63.348972 
L 102.207964 63.053685 
L 108.280921 62.515959 
L 114.353877 62.14019 
L 120.426834 61.939705 
L 126.499791 61.268675 
L 132.572748 60.106542 
L 138.645705 59.910013 
L 144.718662 59.865056 
L 150.791618 59.757806 
L 156.864575 59.580225 
L 162.937532 59.553797 
L 169.010489 59.443518 
L 175.083446 59.54 
L 181.156403 59.428487 
L 187.22936 59.625815 
L 193.302316 59.887384 
L 199.375273 60.037299 
L 205.44823 60.021197 
L 211.521187 60.209802 
L 217.594144 60.172809 
L 223.667101 60.265796 
L 229.740057 60.296414 
L 235.813014 60.41229 
L 241.885971 60.726558 
L 247.958928 68.12886 
L 254.031885 88.044904 
L 260.104842 105.828684 
L 266.177798 120.0869 
L 272.250755 125.08384 
L 278.323712 129.775842 
L 284.396669 127.768858 
L 290.469626 125.221132 
L 296.542583 122.746835 
L 302.615539 117.895862 
L 308.688496 100.660255 
L 314.761453 71.9626 
L 320.83441 61.974563 
L 326.907367 60.987613 
L 332.980324 60.600901 
L 339.053281 60.196843 
L 345.126237 60.20281 
L 351.199194 60.546453 
L 357.272151 60.556717 
L 363.345108 60.416815 
L 369.418065 60.516769 
L 375.491022 60.446302 
L 381.563978 60.505005 
L 387.636935 60.679865 
L 393.709892 61.106182 
L 399.782849 69.981526 
L 405.855806 99.150928 
L 411.928763 120.548253 
L 418.001719 125.661891 
L 424.074676 126.160112 
L 430.147633 124.897746 
L 436.22059 116.380607 
L 442.293547 96.234174 
L 448.366504 67.251572 
L 454.439461 59.501353 
L 460.512417 59.074624 
L 466.585374 58.594839 
L 472.658331 59.359282 
L 478.731288 59.404654 
L 484.804245 58.88164 
L 490.877202 58.810078 
L 496.950158 58.963611 
L 503.023115 58.887903 
L 509.096072 58.819014 
L 515.169029 58.847666 
L 521.241986 59.096325 
L 527.314943 61.623627 
L 533.387899 80.645119 
L 539.460856 101.678391 
L 545.533813 118.587302 
L 551.60677 128.386812 
L 557.679727 132.53369 
L 563.752684 133.219927 
L 569.82564 131.323363 
L 575.898597 121.234356 
L 581.971554 86.535381 
L 588.044511 63.292287 
L 594.117468 60.956907 
L 600.190425 60.091673 
L 606.263382 59.872883 
L 612.336338 59.849274 
L 618.409295 59.946244 
L 624.482252 59.402845 
L 630.555209 59.610473 
L 636.628166 59.315777 
L 642.701123 59.684843 
L 648.774079 59.757497 
L 654.847036 59.717058 
L 660.919993 59.946134 
L 666.99295 71.556897 
L 673.065907 95.741478 
L 679.138864 118.408474 
" clip-path="url(#pc6ad665e88)" style="fill: none; stroke: #808080; stroke-width: 1.5; stroke-linecap: square"/>
   </g>
   <g id="line2d_3">
    <path d="M 77.916136 38.450479 
L 83.989093 38.613856 
L 90.06205 38.93486 
L 96.135007 39.053053 
L 102.207964 39.192524 
L 108.280921 39.320532 
L 114.353877 39.2275 
L 120.426834 39.21725 
L 126.499791 39.204532 
L 132.572748 39.128881 
L 138.645705 39.118187 
L 144.718662 39.207566 
L 150.791618 39.049884 
L 156.864575 38.975329 
L 162.937532 38.935372 
L 169.010489 38.812047 
L 175.083446 38.797554 
L 181.156403 38.668128 
L 187.22936 38.650955 
L 193.302316 38.682743 
L 199.375273 38.857272 
L 205.44823 38.956527 
L 211.521187 38.959804 
L 217.594144 38.967078 
L 223.667101 38.980025 
L 229.740057 38.958559 
L 235.813014 38.950431 
L 241.885971 38.927461 
L 247.958928 38.925985 
L 254.031885 43.339514 
L 260.104842 57.536961 
L 266.177798 66.958428 
L 272.250755 71.213997 
L 278.323712 70.403634 
L 284.396669 68.811539 
L 290.469626 67.245347 
L 296.542583 65.468974 
L 302.615539 58.090305 
L 308.688496 47.38775 
L 314.761453 41.500526 
L 320.83441 40.408836 
L 326.907367 40.325285 
L 332.980324 40.174922 
L 339.053281 39.896254 
L 345.126237 40.163835 
L 351.199194 40.151015 
L 357.272151 40.099387 
L 363.345108 39.870414 
L 369.418065 39.927618 
L 375.491022 39.840735 
L 381.563978 39.881911 
L 387.636935 39.681092 
L 393.709892 39.761296 
L 399.782849 39.679896 
L 405.855806 42.688846 
L 411.928763 52.304671 
L 418.001719 57.493756 
L 424.074676 61.915964 
L 430.147633 64.178952 
L 436.22059 63.363884 
L 442.293547 54.576363 
L 448.366504 42.137704 
L 454.439461 39.640927 
L 460.512417 39.155696 
L 466.585374 39.19392 
L 472.658331 39.413418 
L 478.731288 39.408615 
L 484.804245 39.411836 
L 490.877202 39.293631 
L 496.950158 39.229224 
L 503.023115 39.094693 
L 509.096072 39.066755 
L 515.169029 39.127371 
L 521.241986 39.002442 
L 527.314943 38.899238 
L 533.387899 38.887213 
L 539.460856 38.82803 
L 545.533813 38.700422 
L 551.60677 38.501936 
L 557.679727 38.396135 
L 563.752684 38.341298 
L 569.82564 38.34057 
L 575.898597 38.305934 
L 581.971554 38.335861 
L 588.044511 38.400982 
L 594.117468 38.493282 
L 600.190425 38.705287 
L 606.263382 38.883572 
L 612.336338 38.873265 
L 618.409295 38.966206 
L 624.482252 39.14649 
L 630.555209 39.282906 
L 636.628166 39.373152 
L 642.701123 39.445778 
L 648.774079 39.460157 
L 654.847036 39.382444 
L 660.919993 39.338537 
L 666.99295 39.207904 
L 673.065907 38.987038 
L 679.138864 39.219804 
" clip-path="url(#pc6ad665e88)" style="fill: none; stroke: #808080; stroke-width: 1.5; stroke-linecap: square"/>
   </g>
   <g id="line2d_4">
    <path d="M 77.916136 64.404479 
L 83.989093 63.970017 
L 90.06205 63.652021 
L 96.135007 63.348972 
L 102.207964 63.053685 
L 108.280921 62.515959 
L 114.353877 62.14019 
L 120.426834 61.939705 
L 126.499791 61.268675 
L 132.572748 60.106542 
L 138.645705 59.910013 
L 144.718662 59.865056 
L 150.791618 59.757806 
L 156.864575 59.580225 
L 162.937532 59.553797 
L 169.010489 59.443518 
L 175.083446 59.54 
L 181.156403 59.428487 
L 187.22936 59.625815 
L 193.302316 59.887384 
L 199.375273 60.037299 
L 205.44823 60.021197 
L 211.521187 60.209802 
L 217.594144 60.172809 
L 223.667101 60.265796 
L 229.740057 60.296414 
L 235.813014 60.41229 
L 241.885971 60.726558 
L 247.958928 68.12886 
L 254.031885 88.044904 
L 260.104842 105.828684 
L 266.177798 120.0869 
L 272.250755 125.08384 
L 278.323712 129.775842 
L 284.396669 127.768858 
L 290.469626 125.221132 
L 296.542583 122.746835 
L 302.615539 117.895862 
L 308.688496 100.660255 
L 314.761453 71.9626 
L 320.83441 61.974563 
L 326.907367 60.987613 
L 332.980324 60.600901 
L 339.053281 60.196843 
L 345.126237 60.20281 
L 351.199194 60.546453 
L 357.272151 60.556717 
L 363.345108 60.416815 
L 369.418065 60.516769 
L 375.491022 60.446302 
L 381.563978 60.505005 
L 387.636935 60.679865 
L 393.709892 61.106182 
L 399.782849 69.981526 
L 405.855806 99.150928 
L 411.928763 120.548253 
L 418.001719 125.661891 
L 424.074676 126.160112 
L 430.147633 124.897746 
L 436.22059 116.380607 
L 442.293547 96.234174 
L 448.366504 67.251572 
L 454.439461 59.501353 
L 460.512417 59.074624 
L 466.585374 58.594839 
L 472.658331 59.359282 
L 478.731288 59.404654 
L 484.804245 58.88164 
L 490.877202 58.810078 
L 496.950158 58.963611 
L 503.023115 58.887903 
L 509.096072 58.819014 
L 515.169029 58.847666 
L 521.241986 59.096325 
L 527.314943 61.623627 
L 533.387899 80.645119 
L 539.460856 101.678391 
L 545.533813 118.587302 
L 551.60677 128.386812 
L 557.679727 132.53369 
L 563.752684 133.219927 
L 569.82564 131.323363 
L 575.898597 121.234356 
L 581.971554 86.535381 
L 588.044511 63.292287 
L 594.117468 60.956907 
L 600.190425 60.091673 
L 606.263382 59.872883 
L 612.336338 59.849274 
L 618.409295 59.946244 
L 624.482252 59.402845 
L 630.555209 59.610473 
L 636.628166 59.315777 
L 642.701123 59.684843 
L 648.774079 59.757497 
L 654.847036 59.717058 
L 660.919993 59.946134 
L 666.99295 71.556897 
L 673.065907 95.741478 
L 679.138864 118.408474 
" clip-path="url(#pc6ad665e88)" style="fill: none; stroke: #808080; stroke-width: 1.5; stroke-linecap: square"/>
   </g>
   <g id="matplotlib.axis_1">
    <g id="xtick_1">
     <g id="line2d_5">
      <path d="M 77.916136 282.04 
L 77.916136 26.16 
" clip-path="url(#pc6ad665e88)" style="fill: none; stroke: #b0b0b0; stroke-opacity: 0.2; stroke-width: 0.8; stroke-linecap: square"/>
     </g>
     <g id="line2d_6">
      <defs>
       <path id="md47a4955a5" d="M 0 0 
L 0 3.5 
" style="stroke: #000000; stroke-width: 0.8"/>
      </defs>
      <g>
       <use xlink:href="#md47a4955a5" x="77.916136" y="282.04" style="stroke: #000000; stroke-width: 0.8"/>
      </g>
     </g>
     <g id="text_1">
      <!-- 0 -->
      <g transform="translate(74.734886 296.638438) scale(0.1 -0.1)">
       <defs>
        <path id="DejaVuSans-30" d="M 2034 4250 
Q 1547 4250 1301 3770 
Q 1056 3291 1056 2328 
Q 1056 1369 1301 889 
Q 1547 409 2034 409 
Q 2525 409 2770 889 
Q 3016 1369 3016 2328 
Q 3016 3291 2770 3770 
Q 2525 4250 2034 4250 
z
M 2034 4750 
Q 2819 4750 3233 4129 
Q 3647 3509 3647 2328 
Q 3647 1150 3233 529 
Q 2819 -91 2034 -91 
Q 1250 -91 836 529 
Q 422 1150 422 2328 
Q 422 3509 836 4129 
Q 1250 4750 2034 4750 
z
" transform="scale(0.015625)"/>
       </defs>
       <use xlink:href="#DejaVuSans-30"/>
      </g>
     </g>
    </g>
    <g id="xtick_2">
     <g id="line2d_7">
      <path d="M 169.010489 282.04 
L 169.010489 26.16 
" clip-path="url(#pc6ad665e88)" style="fill: none; stroke: #b0b0b0; stroke-opacity: 0.2; stroke-width: 0.8; stroke-linecap: square"/>
     </g>
     <g id="line2d_8">
      <g>
       <use xlink:href="#md47a4955a5" x="169.010489" y="282.04" style="stroke: #000000; stroke-width: 0.8"/>
      </g>
     </g>
     <g id="text_2">
      <!-- 2 -->
      <g transform="translate(165.829239 296.638438) scale(0.1 -0.1)">
       <defs>
        <path id="DejaVuSans-32" d="M 1228 531 
L 3431 531 
L 3431 0 
L 469 0 
L 469 531 
Q 828 903 1448 1529 
Q 2069 2156 2228 2338 
Q 2531 2678 2651 2914 
Q 2772 3150 2772 3378 
Q 2772 3750 2511 3984 
Q 2250 4219 1831 4219 
Q 1534 4219 1204 4116 
Q 875 4013 500 3803 
L 500 4441 
Q 881 4594 1212 4672 
Q 1544 4750 1819 4750 
Q 2544 4750 2975 4387 
Q 3406 4025 3406 3419 
Q 3406 3131 3298 2873 
Q 3191 2616 2906 2266 
Q 2828 2175 2409 1742 
Q 1991 1309 1228 531 
z
" transform="scale(0.015625)"/>
       </defs>
       <use xlink:href="#DejaVuSans-32"/>
      </g>
     </g>
    </g>
    <g id="xtick_3">
     <g id="line2d_9">
      <path d="M 260.104842 282.04 
L 260.104842 26.16 
" clip-path="url(#pc6ad665e88)" style="fill: none; stroke: #b0b0b0; stroke-opacity: 0.2; stroke-width: 0.8; stroke-linecap: square"/>
     </g>
     <g id="line2d_10">
      <g>
       <use xlink:href="#md47a4955a5" x="260.104842" y="282.04" style="stroke: #000000; stroke-width: 0.8"/>
      </g>
     </g>
     <g id="text_3">
      <!-- 4 -->
      <g transform="translate(256.923592 296.638438) scale(0.1 -0.1)">
       <defs>
        <path id="DejaVuSans-34" d="M 2419 4116 
L 825 1625 
L 2419 1625 
L 2419 4116 
z
M 2253 4666 
L 3047 4666 
L 3047 1625 
L 3713 1625 
L 3713 1100 
L 3047 1100 
L 3047 0 
L 2419 0 
L 2419 1100 
L 313 1100 
L 313 1709 
L 2253 4666 
z
" transform="scale(0.015625)"/>
       </defs>
       <use xlink:href="#DejaVuSans-34"/>
      </g>
     </g>
    </g>
    <g id="xtick_4">
     <g id="line2d_11">
      <path d="M 351.199194 282.04 
L 351.199194 26.16 
" clip-path="url(#pc6ad665e88)" style="fill: none; stroke: #b0b0b0; stroke-opacity: 0.2; stroke-width: 0.8; stroke-linecap: square"/>
     </g>
     <g id="line2d_12">
      <g>
       <use xlink:href="#md47a4955a5" x="351.199194" y="282.04" style="stroke: #000000; stroke-width: 0.8"/>
      </g>
     </g>
     <g id="text_4">
      <!-- 6 -->
      <g transform="translate(348.017944 296.638438) scale(0.1 -0.1)">
       <defs>
        <path id="DejaVuSans-36" d="M 2113 2584 
Q 1688 2584 1439 2293 
Q 1191 2003 1191 1497 
Q 1191 994 1439 701 
Q 1688 409 2113 409 
Q 2538 409 2786 701 
Q 3034 994 3034 1497 
Q 3034 2003 2786 2293 
Q 2538 2584 2113 2584 
z
M 3366 4563 
L 3366 3988 
Q 3128 4100 2886 4159 
Q 2644 4219 2406 4219 
Q 1781 4219 1451 3797 
Q 1122 3375 1075 2522 
Q 1259 2794 1537 2939 
Q 1816 3084 2150 3084 
Q 2853 3084 3261 2657 
Q 3669 2231 3669 1497 
Q 3669 778 3244 343 
Q 2819 -91 2113 -91 
Q 1303 -91 875 529 
Q 447 1150 447 2328 
Q 447 3434 972 4092 
Q 1497 4750 2381 4750 
Q 2619 4750 2861 4703 
Q 3103 4656 3366 4563 
z
" transform="scale(0.015625)"/>
       </defs>
       <use xlink:href="#DejaVuSans-36"/>
      </g>
     </g>
    </g>
    <g id="xtick_5">
     <g id="line2d_13">
      <path d="M 442.293547 282.04 
L 442.293547 26.16 
" clip-path="url(#pc6ad665e88)" style="fill: none; stroke: #b0b0b0; stroke-opacity: 0.2; stroke-width: 0.8; stroke-linecap: square"/>
     </g>
     <g id="line2d_14">
      <g>
       <use xlink:href="#md47a4955a5" x="442.293547" y="282.04" style="stroke: #000000; stroke-width: 0.8"/>
      </g>
     </g>
     <g id="text_5">
      <!-- 8 -->
      <g transform="translate(439.112297 296.638438) scale(0.1 -0.1)">
       <defs>
        <path id="DejaVuSans-38" d="M 2034 2216 
Q 1584 2216 1326 1975 
Q 1069 1734 1069 1313 
Q 1069 891 1326 650 
Q 1584 409 2034 409 
Q 2484 409 2743 651 
Q 3003 894 3003 1313 
Q 3003 1734 2745 1975 
Q 2488 2216 2034 2216 
z
M 1403 2484 
Q 997 2584 770 2862 
Q 544 3141 544 3541 
Q 544 4100 942 4425 
Q 1341 4750 2034 4750 
Q 2731 4750 3128 4425 
Q 3525 4100 3525 3541 
Q 3525 3141 3298 2862 
Q 3072 2584 2669 2484 
Q 3125 2378 3379 2068 
Q 3634 1759 3634 1313 
Q 3634 634 3220 271 
Q 2806 -91 2034 -91 
Q 1263 -91 848 271 
Q 434 634 434 1313 
Q 434 1759 690 2068 
Q 947 2378 1403 2484 
z
M 1172 3481 
Q 1172 3119 1398 2916 
Q 1625 2713 2034 2713 
Q 2441 2713 2670 2916 
Q 2900 3119 2900 3481 
Q 2900 3844 2670 4047 
Q 2441 4250 2034 4250 
Q 1625 4250 1398 4047 
Q 1172 3844 1172 3481 
z
" transform="scale(0.015625)"/>
       </defs>
       <use xlink:href="#DejaVuSans-38"/>
      </g>
     </g>
    </g>
    <g id="xtick_6">
     <g id="line2d_15">
      <path d="M 533.387899 282.04 
L 533.387899 26.16 
" clip-path="url(#pc6ad665e88)" style="fill: none; stroke: #b0b0b0; stroke-opacity: 0.2; stroke-width: 0.8; stroke-linecap: square"/>
     </g>
     <g id="line2d_16">
      <g>
       <use xlink:href="#md47a4955a5" x="533.387899" y="282.04" style="stroke: #000000; stroke-width: 0.8"/>
      </g>
     </g>
     <g id="text_6">
      <!-- 10 -->
      <g transform="translate(527.025399 296.638438) scale(0.1 -0.1)">
       <defs>
        <path id="DejaVuSans-31" d="M 794 531 
L 1825 531 
L 1825 4091 
L 703 3866 
L 703 4441 
L 1819 4666 
L 2450 4666 
L 2450 531 
L 3481 531 
L 3481 0 
L 794 0 
L 794 531 
z
" transform="scale(0.015625)"/>
       </defs>
       <use xlink:href="#DejaVuSans-31"/>
       <use xlink:href="#DejaVuSans-30" x="63.623047"/>
      </g>
     </g>
    </g>
    <g id="xtick_7">
     <g id="line2d_17">
      <path d="M 624.482252 282.04 
L 624.482252 26.16 
" clip-path="url(#pc6ad665e88)" style="fill: none; stroke: #b0b0b0; stroke-opacity: 0.2; stroke-width: 0.8; stroke-linecap: square"/>
     </g>
     <g id="line2d_18">
      <g>
       <use xlink:href="#md47a4955a5" x="624.482252" y="282.04" style="stroke: #000000; stroke-width: 0.8"/>
      </g>
     </g>
     <g id="text_7">
      <!-- 12 -->
      <g transform="translate(618.119752 296.638438) scale(0.1 -0.1)">
       <use xlink:href="#DejaVuSans-31"/>
       <use xlink:href="#DejaVuSans-32" x="63.623047"/>
      </g>
     </g>
    </g>
    <g id="text_8">
     <!-- Time (s) -->
     <g transform="translate(358.198594 310.316563) scale(0.1 -0.1)">
      <defs>
       <path id="DejaVuSans-54" d="M -19 4666 
L 3928 4666 
L 3928 4134 
L 2272 4134 
L 2272 0 
L 1638 0 
L 1638 4134 
L -19 4134 
L -19 4666 
z
" transform="scale(0.015625)"/>
       <path id="DejaVuSans-69" d="M 603 3500 
L 1178 3500 
L 1178 0 
L 603 0 
L 603 3500 
z
M 603 4863 
L 1178 4863 
L 1178 4134 
L 603 4134 
L 603 4863 
z
" transform="scale(0.015625)"/>
       <path id="DejaVuSans-6d" d="M 3328 2828 
Q 3544 3216 3844 3400 
Q 4144 3584 4550 3584 
Q 5097 3584 5394 3201 
Q 5691 2819 5691 2113 
L 5691 0 
L 5113 0 
L 5113 2094 
Q 5113 2597 4934 2840 
Q 4756 3084 4391 3084 
Q 3944 3084 3684 2787 
Q 3425 2491 3425 1978 
L 3425 0 
L 2847 0 
L 2847 2094 
Q 2847 2600 2669 2842 
Q 2491 3084 2119 3084 
Q 1678 3084 1418 2786 
Q 1159 2488 1159 1978 
L 1159 0 
L 581 0 
L 581 3500 
L 1159 3500 
L 1159 2956 
Q 1356 3278 1631 3431 
Q 1906 3584 2284 3584 
Q 2666 3584 2933 3390 
Q 3200 3197 3328 2828 
z
" transform="scale(0.015625)"/>
       <path id="DejaVuSans-65" d="M 3597 1894 
L 3597 1613 
L 953 1613 
Q 991 1019 1311 708 
Q 1631 397 2203 397 
Q 2534 397 2845 478 
Q 3156 559 3463 722 
L 3463 178 
Q 3153 47 2828 -22 
Q 2503 -91 2169 -91 
Q 1331 -91 842 396 
Q 353 884 353 1716 
Q 353 2575 817 3079 
Q 1281 3584 2069 3584 
Q 2775 3584 3186 3129 
Q 3597 2675 3597 1894 
z
M 3022 2063 
Q 3016 2534 2758 2815 
Q 2500 3097 2075 3097 
Q 1594 3097 1305 2825 
Q 1016 2553 972 2059 
L 3022 2063 
z
" transform="scale(0.015625)"/>
       <path id="DejaVuSans-20" transform="scale(0.015625)"/>
       <path id="DejaVuSans-28" d="M 1984 4856 
Q 1566 4138 1362 3434 
Q 1159 2731 1159 2009 
Q 1159 1288 1364 580 
Q 1569 -128 1984 -844 
L 1484 -844 
Q 1016 -109 783 600 
Q 550 1309 550 2009 
Q 550 2706 781 3412 
Q 1013 4119 1484 4856 
L 1984 4856 
z
" transform="scale(0.015625)"/>
       <path id="DejaVuSans-73" d="M 2834 3397 
L 2834 2853 
Q 2591 2978 2328 3040 
Q 2066 3103 1784 3103 
Q 1356 3103 1142 2972 
Q 928 2841 928 2578 
Q 928 2378 1081 2264 
Q 1234 2150 1697 2047 
L 1894 2003 
Q 2506 1872 2764 1633 
Q 3022 1394 3022 966 
Q 3022 478 2636 193 
Q 2250 -91 1575 -91 
Q 1294 -91 989 -36 
Q 684 19 347 128 
L 347 722 
Q 666 556 975 473 
Q 1284 391 1588 391 
Q 1994 391 2212 530 
Q 2431 669 2431 922 
Q 2431 1156 2273 1281 
Q 2116 1406 1581 1522 
L 1381 1569 
Q 847 1681 609 1914 
Q 372 2147 372 2553 
Q 372 3047 722 3315 
Q 1072 3584 1716 3584 
Q 2034 3584 2315 3537 
Q 2597 3491 2834 3397 
z
" transform="scale(0.015625)"/>
       <path id="DejaVuSans-29" d="M 513 4856 
L 1013 4856 
Q 1481 4119 1714 3412 
Q 1947 2706 1947 2009 
Q 1947 1309 1714 600 
Q 1481 -109 1013 -844 
L 513 -844 
Q 928 -128 1133 580 
Q 1338 1288 1338 2009 
Q 1338 2731 1133 3434 
Q 928 4138 513 4856 
z
" transform="scale(0.015625)"/>
      </defs>
      <use xlink:href="#DejaVuSans-54"/>
      <use xlink:href="#DejaVuSans-69" x="57.958984"/>
      <use xlink:href="#DejaVuSans-6d" x="85.742188"/>
      <use xlink:href="#DejaVuSans-65" x="183.154297"/>
      <use xlink:href="#DejaVuSans-20" x="244.677734"/>
      <use xlink:href="#DejaVuSans-28" x="276.464844"/>
      <use xlink:href="#DejaVuSans-73" x="315.478516"/>
      <use xlink:href="#DejaVuSans-29" x="367.578125"/>
     </g>
    </g>
   </g>
   <g id="matplotlib.axis_2">
    <g id="ytick_1">
     <g id="line2d_19">
      <path d="M 47.855 282.04 
L 709.2 282.04 
" clip-path="url(#pc6ad665e88)" style="fill: none; stroke: #b0b0b0; stroke-opacity: 0.2; stroke-width: 0.8; stroke-linecap: square"/>
     </g>
     <g id="line2d_20">
      <defs>
       <path id="m4f550dd0e0" d="M 0 0 
L -3.5 0 
" style="stroke: #000000; stroke-width: 0.8"/>
      </defs>
      <g>
       <use xlink:href="#m4f550dd0e0" x="47.855" y="282.04" style="stroke: #000000; stroke-width: 0.8"/>
      </g>
     </g>
     <g id="text_9">
      <!-- 0.0 -->
      <g transform="translate(24.951875 285.839219) scale(0.1 -0.1)">
       <defs>
        <path id="DejaVuSans-2e" d="M 684 794 
L 1344 794 
L 1344 0 
L 684 0 
L 684 794 
z
" transform="scale(0.015625)"/>
       </defs>
       <use xlink:href="#DejaVuSans-30"/>
       <use xlink:href="#DejaVuSans-2e" x="63.623047"/>
       <use xlink:href="#DejaVuSans-30" x="95.410156"/>
      </g>
     </g>
    </g>
    <g id="ytick_2">
     <g id="line2d_21">
      <path d="M 47.855 235.590344 
L 709.2 235.590344 
" clip-path="url(#pc6ad665e88)" style="fill: none; stroke: #b0b0b0; stroke-opacity: 0.2; stroke-width: 0.8; stroke-linecap: square"/>
     </g>
     <g id="line2d_22">
      <g>
       <use xlink:href="#m4f550dd0e0" x="47.855" y="235.590344" style="stroke: #000000; stroke-width: 0.8"/>
      </g>
     </g>
     <g id="text_10">
      <!-- 0.2 -->
      <g transform="translate(24.951875 239.389562) scale(0.1 -0.1)">
       <use xlink:href="#DejaVuSans-30"/>
       <use xlink:href="#DejaVuSans-2e" x="63.623047"/>
       <use xlink:href="#DejaVuSans-32" x="95.410156"/>
      </g>
     </g>
    </g>
    <g id="ytick_3">
     <g id="line2d_23">
      <path d="M 47.855 189.140687 
L 709.2 189.140687 
" clip-path="url(#pc6ad665e88)" style="fill: none; stroke: #b0b0b0; stroke-opacity: 0.2; stroke-width: 0.8; stroke-linecap: square"/>
     </g>
     <g id="line2d_24">
      <g>
       <use xlink:href="#m4f550dd0e0" x="47.855" y="189.140687" style="stroke: #000000; stroke-width: 0.8"/>
      </g>
     </g>
     <g id="text_11">
      <!-- 0.4 -->
      <g transform="translate(24.951875 192.939906) scale(0.1 -0.1)">
       <use xlink:href="#DejaVuSans-30"/>
       <use xlink:href="#DejaVuSans-2e" x="63.623047"/>
       <use xlink:href="#DejaVuSans-34" x="95.410156"/>
      </g>
     </g>
    </g>
    <g id="ytick_4">
     <g id="line2d_25">
      <path d="M 47.855 142.691031 
L 709.2 142.691031 
" clip-path="url(#pc6ad665e88)" style="fill: none; stroke: #b0b0b0; stroke-opacity: 0.2; stroke-width: 0.8; stroke-linecap: square"/>
     </g>
     <g id="line2d_26">
      <g>
       <use xlink:href="#m4f550dd0e0" x="47.855" y="142.691031" style="stroke: #000000; stroke-width: 0.8"/>
      </g>
     </g>
     <g id="text_12">
      <!-- 0.6 -->
      <g transform="translate(24.951875 146.490249) scale(0.1 -0.1)">
       <use xlink:href="#DejaVuSans-30"/>
       <use xlink:href="#DejaVuSans-2e" x="63.623047"/>
       <use xlink:href="#DejaVuSans-36" x="95.410156"/>
      </g>
     </g>
    </g>
    <g id="ytick_5">
     <g id="line2d_27">
      <path d="M 47.855 96.241374 
L 709.2 96.241374 
" clip-path="url(#pc6ad665e88)" style="fill: none; stroke: #b0b0b0; stroke-opacity: 0.2; stroke-width: 0.8; stroke-linecap: square"/>
     </g>
     <g id="line2d_28">
      <g>
       <use xlink:href="#m4f550dd0e0" x="47.855" y="96.241374" style="stroke: #000000; stroke-width: 0.8"/>
      </g>
     </g>
     <g id="text_13">
      <!-- 0.8 -->
      <g transform="translate(24.951875 100.040593) scale(0.1 -0.1)">
       <use xlink:href="#DejaVuSans-30"/>
       <use xlink:href="#DejaVuSans-2e" x="63.623047"/>
       <use xlink:href="#DejaVuSans-38" x="95.410156"/>
      </g>
     </g>
    </g>
    <g id="ytick_6">
     <g id="line2d_29">
      <path d="M 47.855 49.791718 
L 709.2 49.791718 
" clip-path="url(#pc6ad665e88)" style="fill: none; stroke: #b0b0b0; stroke-opacity: 0.2; stroke-width: 0.8; stroke-linecap: square"/>
     </g>
     <g id="line2d_30">
      <g>
       <use xlink:href="#m4f550dd0e0" x="47.855" y="49.791718" style="stroke: #000000; stroke-width: 0.8"/>
      </g>
     </g>
     <g id="text_14">
      <!-- 1.0 -->
      <g transform="translate(24.951875 53.590936) scale(0.1 -0.1)">
       <use xlink:href="#DejaVuSans-31"/>
       <use xlink:href="#DejaVuSans-2e" x="63.623047"/>
       <use xlink:href="#DejaVuSans-30" x="95.410156"/>
      </g>
     </g>
    </g>
    <g id="text_15">
     <!-- Position (norm units) -->
     <g transform="translate(18.872188 206.001562) rotate(-90) scale(0.1 -0.1)">
      <defs>
       <path id="DejaVuSans-50" d="M 1259 4147 
L 1259 2394 
L 2053 2394 
Q 2494 2394 2734 2622 
Q 2975 2850 2975 3272 
Q 2975 3691 2734 3919 
Q 2494 4147 2053 4147 
L 1259 4147 
z
M 628 4666 
L 2053 4666 
Q 2838 4666 3239 4311 
Q 3641 3956 3641 3272 
Q 3641 2581 3239 2228 
Q 2838 1875 2053 1875 
L 1259 1875 
L 1259 0 
L 628 0 
L 628 4666 
z
" transform="scale(0.015625)"/>
       <path id="DejaVuSans-6f" d="M 1959 3097 
Q 1497 3097 1228 2736 
Q 959 2375 959 1747 
Q 959 1119 1226 758 
Q 1494 397 1959 397 
Q 2419 397 2687 759 
Q 2956 1122 2956 1747 
Q 2956 2369 2687 2733 
Q 2419 3097 1959 3097 
z
M 1959 3584 
Q 2709 3584 3137 3096 
Q 3566 2609 3566 1747 
Q 3566 888 3137 398 
Q 2709 -91 1959 -91 
Q 1206 -91 779 398 
Q 353 888 353 1747 
Q 353 2609 779 3096 
Q 1206 3584 1959 3584 
z
" transform="scale(0.015625)"/>
       <path id="DejaVuSans-74" d="M 1172 4494 
L 1172 3500 
L 2356 3500 
L 2356 3053 
L 1172 3053 
L 1172 1153 
Q 1172 725 1289 603 
Q 1406 481 1766 481 
L 2356 481 
L 2356 0 
L 1766 0 
Q 1100 0 847 248 
Q 594 497 594 1153 
L 594 3053 
L 172 3053 
L 172 3500 
L 594 3500 
L 594 4494 
L 1172 4494 
z
" transform="scale(0.015625)"/>
       <path id="DejaVuSans-6e" d="M 3513 2113 
L 3513 0 
L 2938 0 
L 2938 2094 
Q 2938 2591 2744 2837 
Q 2550 3084 2163 3084 
Q 1697 3084 1428 2787 
Q 1159 2491 1159 1978 
L 1159 0 
L 581 0 
L 581 3500 
L 1159 3500 
L 1159 2956 
Q 1366 3272 1645 3428 
Q 1925 3584 2291 3584 
Q 2894 3584 3203 3211 
Q 3513 2838 3513 2113 
z
" transform="scale(0.015625)"/>
       <path id="DejaVuSans-72" d="M 2631 2963 
Q 2534 3019 2420 3045 
Q 2306 3072 2169 3072 
Q 1681 3072 1420 2755 
Q 1159 2438 1159 1844 
L 1159 0 
L 581 0 
L 581 3500 
L 1159 3500 
L 1159 2956 
Q 1341 3275 1631 3429 
Q 1922 3584 2338 3584 
Q 2397 3584 2469 3576 
Q 2541 3569 2628 3553 
L 2631 2963 
z
" transform="scale(0.015625)"/>
       <path id="DejaVuSans-75" d="M 544 1381 
L 544 3500 
L 1119 3500 
L 1119 1403 
Q 1119 906 1312 657 
Q 1506 409 1894 409 
Q 2359 409 2629 706 
Q 2900 1003 2900 1516 
L 2900 3500 
L 3475 3500 
L 3475 0 
L 2900 0 
L 2900 538 
Q 2691 219 2414 64 
Q 2138 -91 1772 -91 
Q 1169 -91 856 284 
Q 544 659 544 1381 
z
M 1991 3584 
L 1991 3584 
z
" transform="scale(0.015625)"/>
      </defs>
      <use xlink:href="#DejaVuSans-50"/>
      <use xlink:href="#DejaVuSans-6f" x="56.677734"/>
      <use xlink:href="#DejaVuSans-73" x="117.859375"/>
      <use xlink:href="#DejaVuSans-69" x="169.958984"/>
      <use xlink:href="#DejaVuSans-74" x="197.742188"/>
      <use xlink:href="#DejaVuSans-69" x="236.951172"/>
      <use xlink:href="#DejaVuSans-6f" x="264.734375"/>
      <use xlink:href="#DejaVuSans-6e" x="325.916016"/>
      <use xlink:href="#DejaVuSans-20" x="389.294922"/>
      <use xlink:href="#DejaVuSans-28" x="421.082031"/>
      <use xlink:href="#DejaVuSans-6e" x="460.095703"/>
      <use xlink:href="#DejaVuSans-6f" x="523.474609"/>
      <use xlink:href="#DejaVuSans-72" x="584.65625"/>
      <use xlink:href="#DejaVuSans-6d" x="624.019531"/>
      <use xlink:href="#DejaVuSans-20" x="721.431641"/>
      <use xlink:href="#DejaVuSans-75" x="753.21875"/>
      <use xlink:href="#DejaVuSans-6e" x="816.597656"/>
      <use xlink:href="#DejaVuSans-69" x="879.976562"/>
      <use xlink:href="#DejaVuSans-74" x="907.759766"/>
      <use xlink:href="#DejaVuSans-73" x="946.96875"/>
      <use xlink:href="#DejaVuSans-29" x="999.068359"/>
     </g>
    </g>
   </g>
   <g id="patch_3">
    <path d="M 47.855 282.04 
L 47.855 26.16 
" style="fill: none; stroke: #000000; stroke-width: 0.8; stroke-linejoin: miter; stroke-linecap: square"/>
   </g>
   <g id="patch_4">
    <path d="M 709.2 282.04 
L 709.2 26.16 
" style="fill: none; stroke: #000000; stroke-width: 0.8; stroke-linejoin: miter; stroke-linecap: square"/>
   </g>
   <g id="patch_5">
    <path d="M 47.855 282.04 
L 709.2 282.04 
" style="fill: none; stroke: #000000; stroke-width: 0.8; stroke-linejoin: miter; stroke-linecap: square"/>
   </g>
   <g id="patch_6">
    <path d="M 47.855 26.16 
L 709.2 26.16 
" style="fill: none; stroke: #000000; stroke-width: 0.8; stroke-linejoin: miter; stroke-linecap: square"/>
   </g>
   <g id="line2d_31">
    <path d="M 77.916136 38.450479 
L 83.989093 38.659093 
L 90.06205 38.884069 
L 96.135007 39.074517 
L 102.207964 39.210434 
L 108.280921 39.275622 
L 114.353877 39.260342 
L 120.426834 39.219648 
L 126.499791 39.179234 
L 132.572748 39.143438 
L 138.645705 39.148351 
L 144.718662 39.15058 
L 150.791618 39.080963 
L 156.864575 38.983486 
L 162.937532 38.909341 
L 169.010489 38.843423 
L 175.083446 38.766942 
L 181.156403 38.68355 
L 187.22936 38.643099 
L 193.302316 38.705862 
L 199.375273 38.840855 
L 205.44823 38.946144 
L 211.521187 38.977397 
L 217.594144 38.957424 
L 223.667101 38.946447 
L 229.740057 39.056663 
L 235.813014 39.02631 
L 241.885971 38.343073 
L 247.958928 38.880494 
L 254.031885 44.968938 
L 260.104842 56.449521 
L 266.177798 66.773726 
L 272.250755 71.112889 
L 278.323712 70.601203 
L 284.396669 68.906501 
L 290.469626 67.713005 
L 296.542583 64.834713 
L 302.615539 57.561809 
L 308.688496 48.122714 
L 314.761453 41.799004 
L 320.83441 40.075286 
L 326.907367 40.231558 
L 332.980324 40.192448 
L 339.053281 40.019216 
L 345.126237 40.076461 
L 351.199194 40.160391 
L 357.272151 40.07306 
L 363.345108 39.936018 
L 369.418065 39.872262 
L 375.491022 39.859867 
L 381.563978 39.891683 
L 387.636935 39.793076 
L 393.709892 39.295296 
L 399.782849 39.749015 
L 405.855806 43.855839 
L 411.928763 51.095201 
L 418.001719 57.692493 
L 424.074676 62.151468 
L 430.147633 64.620458 
L 436.22059 62.449095 
L 442.293547 53.866668 
L 448.366504 43.946123 
L 454.439461 39.103548 
L 460.512417 38.83359 
L 466.585374 39.332682 
L 472.658331 39.408807 
L 478.731288 39.408704 
L 484.804245 39.393622 
L 490.877202 39.31675 
L 496.950158 39.203048 
L 503.023115 39.111242 
L 509.096072 39.090019 
L 515.169029 39.084628 
L 521.241986 39.012255 
L 527.314943 38.920886 
L 533.387899 38.877235 
L 539.460856 38.823419 
L 545.533813 38.689889 
L 551.60677 38.517408 
L 557.679727 38.3946 
L 563.752684 38.344796 
L 569.82564 38.326903 
L 575.898597 38.318086 
L 581.971554 38.332461 
L 588.044511 38.389385 
L 594.117468 38.518373 
L 600.190425 38.704877 
L 606.263382 38.844034 
L 612.336338 38.899992 
L 618.409295 38.979402 
L 624.482252 39.130328 
L 630.555209 39.280241 
L 636.628166 39.383565 
L 642.701123 39.441119 
L 648.774079 39.447369 
L 654.847036 39.412338 
L 660.919993 39.320613 
L 666.99295 39.156343 
L 673.065907 39.078637 
L 679.138864 39.219844 
" clip-path="url(#pc6ad665e88)" style="fill: none; stroke: #ff0000; stroke-width: 1.8; stroke-linecap: square"/>
   </g>
   <g id="line2d_32">
    <path d="M 77.916136 64.404495 
L 83.989093 63.984024 
L 90.06205 63.652081 
L 96.135007 63.365868 
L 102.207964 62.990452 
L 108.280921 62.549138 
L 114.353877 62.218396 
L 120.426834 61.865861 
L 126.499791 61.152023 
L 132.572748 60.299978 
L 138.645705 59.868784 
L 144.718662 59.818989 
L 150.791618 59.756665 
L 156.864575 59.615248 
L 162.937532 59.519953 
L 169.010489 59.489448 
L 175.083446 59.46884 
L 181.156403 59.484503 
L 187.22936 59.632856 
L 193.302316 59.860521 
L 199.375273 60.014878 
L 205.44823 60.090824 
L 211.521187 60.133309 
L 217.594144 60.181471 
L 223.667101 60.370713 
L 229.740057 60.368539 
L 235.813014 59.65739 
L 241.885971 60.83627 
L 247.958928 69.689297 
L 254.031885 87.130173 
L 260.104842 105.921854 
L 266.177798 119.220731 
L 272.250755 126.303833 
L 278.323712 128.841732 
L 284.396669 127.860226 
L 290.469626 125.631423 
L 296.542583 123.656756 
L 302.615539 116.725283 
L 308.688496 98.424061 
L 314.761453 75.340927 
L 320.83441 61.914526 
L 326.907367 59.870304 
L 332.980324 60.661725 
L 339.053281 60.423163 
L 345.126237 60.213908 
L 351.199194 60.440207 
L 357.272151 60.568004 
L 363.345108 60.470982 
L 369.418065 60.398863 
L 375.491022 60.633072 
L 381.563978 60.720293 
L 387.636935 59.547155 
L 393.709892 60.654953 
L 399.782849 73.486007 
L 405.855806 97.879205 
L 411.928763 118.535471 
L 418.001719 126.501918 
L 424.074676 127.069275 
L 430.147633 124.883588 
L 436.22059 115.394388 
L 442.293547 94.463811 
L 448.366504 70.949419 
L 454.439461 58.871672 
L 460.512417 57.885314 
L 466.585374 59.107945 
L 472.658331 59.349198 
L 478.731288 59.240911 
L 484.804245 59.003411 
L 490.877202 58.842521 
L 496.950158 58.846092 
L 503.023115 58.943913 
L 509.096072 59.055357 
L 515.169029 58.437755 
L 521.241986 58.072585 
L 527.314943 63.902024 
L 533.387899 80.108297 
L 539.460856 101.212888 
L 545.533813 118.46397 
L 551.60677 128.266583 
L 557.679727 132.380347 
L 563.752684 134.306126 
L 569.82564 132.089067 
L 575.898597 116.79961 
L 581.971554 88.861399 
L 588.044511 65.931766 
L 594.117468 58.935992 
L 600.190425 59.849741 
L 606.263382 60.247273 
L 612.336338 59.877489 
L 618.409295 59.741444 
L 624.482252 59.607133 
L 630.555209 59.419035 
L 636.628166 59.438558 
L 642.701123 59.808333 
L 648.774079 59.716115 
L 654.847036 58.645392 
L 660.919993 60.77567 
L 666.99295 72.87316 
L 673.065907 94.352496 
L 679.138864 118.408425 
" clip-path="url(#pc6ad665e88)" style="fill: none; stroke: #ff0000; stroke-width: 1.8; stroke-linecap: square"/>
   </g>
   <g id="text_16">
    <!-- Position magnitude vs Time — Selected joints -->
    <g transform="translate(241.619688 20.16) scale(0.12 -0.12)">
     <defs>
      <path id="DejaVuSans-61" d="M 2194 1759 
Q 1497 1759 1228 1600 
Q 959 1441 959 1056 
Q 959 750 1161 570 
Q 1363 391 1709 391 
Q 2188 391 2477 730 
Q 2766 1069 2766 1631 
L 2766 1759 
L 2194 1759 
z
M 3341 1997 
L 3341 0 
L 2766 0 
L 2766 531 
Q 2569 213 2275 61 
Q 1981 -91 1556 -91 
Q 1019 -91 701 211 
Q 384 513 384 1019 
Q 384 1609 779 1909 
Q 1175 2209 1959 2209 
L 2766 2209 
L 2766 2266 
Q 2766 2663 2505 2880 
Q 2244 3097 1772 3097 
Q 1472 3097 1187 3025 
Q 903 2953 641 2809 
L 641 3341 
Q 956 3463 1253 3523 
Q 1550 3584 1831 3584 
Q 2591 3584 2966 3190 
Q 3341 2797 3341 1997 
z
" transform="scale(0.015625)"/>
      <path id="DejaVuSans-67" d="M 2906 1791 
Q 2906 2416 2648 2759 
Q 2391 3103 1925 3103 
Q 1463 3103 1205 2759 
Q 947 2416 947 1791 
Q 947 1169 1205 825 
Q 1463 481 1925 481 
Q 2391 481 2648 825 
Q 2906 1169 2906 1791 
z
M 3481 434 
Q 3481 -459 3084 -895 
Q 2688 -1331 1869 -1331 
Q 1566 -1331 1297 -1286 
Q 1028 -1241 775 -1147 
L 775 -588 
Q 1028 -725 1275 -790 
Q 1522 -856 1778 -856 
Q 2344 -856 2625 -561 
Q 2906 -266 2906 331 
L 2906 616 
Q 2728 306 2450 153 
Q 2172 0 1784 0 
Q 1141 0 747 490 
Q 353 981 353 1791 
Q 353 2603 747 3093 
Q 1141 3584 1784 3584 
Q 2172 3584 2450 3431 
Q 2728 3278 2906 2969 
L 2906 3500 
L 3481 3500 
L 3481 434 
z
" transform="scale(0.015625)"/>
      <path id="DejaVuSans-64" d="M 2906 2969 
L 2906 4863 
L 3481 4863 
L 3481 0 
L 2906 0 
L 2906 525 
Q 2725 213 2448 61 
Q 2172 -91 1784 -91 
Q 1150 -91 751 415 
Q 353 922 353 1747 
Q 353 2572 751 3078 
Q 1150 3584 1784 3584 
Q 2172 3584 2448 3432 
Q 2725 3281 2906 2969 
z
M 947 1747 
Q 947 1113 1208 752 
Q 1469 391 1925 391 
Q 2381 391 2643 752 
Q 2906 1113 2906 1747 
Q 2906 2381 2643 2742 
Q 2381 3103 1925 3103 
Q 1469 3103 1208 2742 
Q 947 2381 947 1747 
z
" transform="scale(0.015625)"/>
      <path id="DejaVuSans-76" d="M 191 3500 
L 800 3500 
L 1894 563 
L 2988 3500 
L 3597 3500 
L 2284 0 
L 1503 0 
L 191 3500 
z
" transform="scale(0.015625)"/>
      <path id="DejaVuSans-2014" d="M 313 1978 
L 6088 1978 
L 6088 1528 
L 313 1528 
L 313 1978 
z
" transform="scale(0.015625)"/>
      <path id="DejaVuSans-53" d="M 3425 4513 
L 3425 3897 
Q 3066 4069 2747 4153 
Q 2428 4238 2131 4238 
Q 1616 4238 1336 4038 
Q 1056 3838 1056 3469 
Q 1056 3159 1242 3001 
Q 1428 2844 1947 2747 
L 2328 2669 
Q 3034 2534 3370 2195 
Q 3706 1856 3706 1288 
Q 3706 609 3251 259 
Q 2797 -91 1919 -91 
Q 1588 -91 1214 -16 
Q 841 59 441 206 
L 441 856 
Q 825 641 1194 531 
Q 1563 422 1919 422 
Q 2459 422 2753 634 
Q 3047 847 3047 1241 
Q 3047 1584 2836 1778 
Q 2625 1972 2144 2069 
L 1759 2144 
Q 1053 2284 737 2584 
Q 422 2884 422 3419 
Q 422 4038 858 4394 
Q 1294 4750 2059 4750 
Q 2388 4750 2728 4690 
Q 3069 4631 3425 4513 
z
" transform="scale(0.015625)"/>
      <path id="DejaVuSans-6c" d="M 603 4863 
L 1178 4863 
L 1178 0 
L 603 0 
L 603 4863 
z
" transform="scale(0.015625)"/>
      <path id="DejaVuSans-63" d="M 3122 3366 
L 3122 2828 
Q 2878 2963 2633 3030 
Q 2388 3097 2138 3097 
Q 1578 3097 1268 2742 
Q 959 2388 959 1747 
Q 959 1106 1268 751 
Q 1578 397 2138 397 
Q 2388 397 2633 464 
Q 2878 531 3122 666 
L 3122 134 
Q 2881 22 2623 -34 
Q 2366 -91 2075 -91 
Q 1284 -91 818 406 
Q 353 903 353 1747 
Q 353 2603 823 3093 
Q 1294 3584 2113 3584 
Q 2378 3584 2631 3529 
Q 2884 3475 3122 3366 
z
" transform="scale(0.015625)"/>
      <path id="DejaVuSans-6a" d="M 603 3500 
L 1178 3500 
L 1178 -63 
Q 1178 -731 923 -1031 
Q 669 -1331 103 -1331 
L -116 -1331 
L -116 -844 
L 38 -844 
Q 366 -844 484 -692 
Q 603 -541 603 -63 
L 603 3500 
z
M 603 4863 
L 1178 4863 
L 1178 4134 
L 603 4134 
L 603 4863 
z
" transform="scale(0.015625)"/>
     </defs>
     <use xlink:href="#DejaVuSans-50"/>
     <use xlink:href="#DejaVuSans-6f" x="56.677734"/>
     <use xlink:href="#DejaVuSans-73" x="117.859375"/>
     <use xlink:href="#DejaVuSans-69" x="169.958984"/>
     <use xlink:href="#DejaVuSans-74" x="197.742188"/>
     <use xlink:href="#DejaVuSans-69" x="236.951172"/>
     <use xlink:href="#DejaVuSans-6f" x="264.734375"/>
     <use xlink:href="#DejaVuSans-6e" x="325.916016"/>
     <use xlink:href="#DejaVuSans-20" x="389.294922"/>
     <use xlink:href="#DejaVuSans-6d" x="421.082031"/>
     <use xlink:href="#DejaVuSans-61" x="518.494141"/>
     <use xlink:href="#DejaVuSans-67" x="579.773438"/>
     <use xlink:href="#DejaVuSans-6e" x="643.25"/>
     <use xlink:href="#DejaVuSans-69" x="706.628906"/>
     <use xlink:href="#DejaVuSans-74" x="734.412109"/>
     <use xlink:href="#DejaVuSans-75" x="773.621094"/>
     <use xlink:href="#DejaVuSans-64" x="837"/>
     <use xlink:href="#DejaVuSans-65" x="900.476562"/>
     <use xlink:href="#DejaVuSans-20" x="962"/>
     <use xlink:href="#DejaVuSans-76" x="993.787109"/>
     <use xlink:href="#DejaVuSans-73" x="1052.966797"/>
     <use xlink:href="#DejaVuSans-20" x="1105.066406"/>
     <use xlink:href="#DejaVuSans-54" x="1136.853516"/>
     <use xlink:href="#DejaVuSans-69" x="1194.8125"/>
     <use xlink:href="#DejaVuSans-6d" x="1222.595703"/>
     <use xlink:href="#DejaVuSans-65" x="1320.007812"/>
     <use xlink:href="#DejaVuSans-20" x="1381.53125"/>
     <use xlink:href="#DejaVuSans-2014" x="1413.318359"/>
     <use xlink:href="#DejaVuSans-20" x="1513.318359"/>
     <use xlink:href="#DejaVuSans-53" x="1545.105469"/>
     <use xlink:href="#DejaVuSans-65" x="1608.582031"/>
     <use xlink:href="#DejaVuSans-6c" x="1670.105469"/>
     <use xlink:href="#DejaVuSans-65" x="1697.888672"/>
     <use xlink:href="#DejaVuSans-63" x="1759.412109"/>
     <use xlink:href="#DejaVuSans-74" x="1814.392578"/>
     <use xlink:href="#DejaVuSans-65" x="1853.601562"/>
     <use xlink:href="#DejaVuSans-64" x="1915.125"/>
     <use xlink:href="#DejaVuSans-20" x="1978.601562"/>
     <use xlink:href="#DejaVuSans-6a" x="2010.388672"/>
     <use xlink:href="#DejaVuSans-6f" x="2038.171875"/>
     <use xlink:href="#DejaVuSans-69" x="2099.353516"/>
     <use xlink:href="#DejaVuSans-6e" x="2127.136719"/>
     <use xlink:href="#DejaVuSans-74" x="2190.515625"/>
     <use xlink:href="#DejaVuSans-73" x="2229.724609"/>
    </g>
   </g>
   <g id="legend_1">
    <g id="line2d_33">
     <path d="M 575.202656 37.948594 
L 584.202656 37.948594 
L 593.202656 37.948594 
" style="fill: none; stroke: #ff0000; stroke-width: 1.8; stroke-linecap: square"/>
    </g>
    <g id="text_17">
     <!-- left_wrist (filtered) -->
     <g transform="translate(600.402656 41.098594) scale(0.09 -0.09)">
      <defs>
       <path id="DejaVuSans-66" d="M 2375 4863 
L 2375 4384 
L 1825 4384 
Q 1516 4384 1395 4259 
Q 1275 4134 1275 3809 
L 1275 3500 
L 2222 3500 
L 2222 3053 
L 1275 3053 
L 1275 0 
L 697 0 
L 697 3053 
L 147 3053 
L 147 3500 
L 697 3500 
L 697 3744 
Q 697 4328 969 4595 
Q 1241 4863 1831 4863 
L 2375 4863 
z
" transform="scale(0.015625)"/>
       <path id="DejaVuSans-5f" d="M 3263 -1063 
L 3263 -1509 
L -63 -1509 
L -63 -1063 
L 3263 -1063 
z
" transform="scale(0.015625)"/>
       <path id="DejaVuSans-77" d="M 269 3500 
L 844 3500 
L 1563 769 
L 2278 3500 
L 2956 3500 
L 3675 769 
L 4391 3500 
L 4966 3500 
L 4050 0 
L 3372 0 
L 2619 2869 
L 1863 0 
L 1184 0 
L 269 3500 
z
" transform="scale(0.015625)"/>
      </defs>
      <use xlink:href="#DejaVuSans-6c"/>
      <use xlink:href="#DejaVuSans-65" x="27.783203"/>
      <use xlink:href="#DejaVuSans-66" x="89.306641"/>
      <use xlink:href="#DejaVuSans-74" x="122.761719"/>
      <use xlink:href="#DejaVuSans-5f" x="161.970703"/>
      <use xlink:href="#DejaVuSans-77" x="211.970703"/>
      <use xlink:href="#DejaVuSans-72" x="293.757812"/>
      <use xlink:href="#DejaVuSans-69" x="334.871094"/>
      <use xlink:href="#DejaVuSans-73" x="362.654297"/>
      <use xlink:href="#DejaVuSans-74" x="414.753906"/>
      <use xlink:href="#DejaVuSans-20" x="453.962891"/>
      <use xlink:href="#DejaVuSans-28" x="485.75"/>
      <use xlink:href="#DejaVuSans-66" x="524.763672"/>
      <use xlink:href="#DejaVuSans-69" x="559.96875"/>
      <use xlink:href="#DejaVuSans-6c" x="587.751953"/>
      <use xlink:href="#DejaVuSans-74" x="615.535156"/>
      <use xlink:href="#DejaVuSans-65" x="654.744141"/>
      <use xlink:href="#DejaVuSans-72" x="716.267578"/>
      <use xlink:href="#DejaVuSans-65" x="755.130859"/>
      <use xlink:href="#DejaVuSans-64" x="816.654297"/>
      <use xlink:href="#DejaVuSans-29" x="880.130859"/>
     </g>
    </g>
    <g id="line2d_34">
     <path d="M 575.202656 51.409219 
L 584.202656 51.409219 
L 593.202656 51.409219 
" style="fill: none; stroke: #ff0000; stroke-width: 1.8; stroke-linecap: square"/>
    </g>
    <g id="text_18">
     <!-- right_wrist (filtered) -->
     <g transform="translate(600.402656 54.559219) scale(0.09 -0.09)">
      <defs>
       <path id="DejaVuSans-68" d="M 3513 2113 
L 3513 0 
L 2938 0 
L 2938 2094 
Q 2938 2591 2744 2837 
Q 2550 3084 2163 3084 
Q 1697 3084 1428 2787 
Q 1159 2491 1159 1978 
L 1159 0 
L 581 0 
L 581 4863 
L 1159 4863 
L 1159 2956 
Q 1366 3272 1645 3428 
Q 1925 3584 2291 3584 
Q 2894 3584 3203 3211 
Q 3513 2838 3513 2113 
z
" transform="scale(0.015625)"/>
      </defs>
      <use xlink:href="#DejaVuSans-72"/>
      <use xlink:href="#DejaVuSans-69" x="41.113281"/>
      <use xlink:href="#DejaVuSans-67" x="68.896484"/>
      <use xlink:href="#DejaVuSans-68" x="132.373047"/>
      <use xlink:href="#DejaVuSans-74" x="195.751953"/>
      <use xlink:href="#DejaVuSans-5f" x="234.960938"/>
      <use xlink:href="#DejaVuSans-77" x="284.960938"/>
      <use xlink:href="#DejaVuSans-72" x="366.748047"/>
      <use xlink:href="#DejaVuSans-69" x="407.861328"/>
      <use xlink:href="#DejaVuSans-73" x="435.644531"/>
      <use xlink:href="#DejaVuSans-74" x="487.744141"/>
      <use xlink:href="#DejaVuSans-20" x="526.953125"/>
      <use xlink:href="#DejaVuSans-28" x="558.740234"/>
      <use xlink:href="#DejaVuSans-66" x="597.753906"/>
      <use xlink:href="#DejaVuSans-69" x="632.958984"/>
      <use xlink:href="#DejaVuSans-6c" x="660.742188"/>
      <use xlink:href="#DejaVuSans-74" x="688.525391"/>
      <use xlink:href="#DejaVuSans-65" x="727.734375"/>
      <use xlink:href="#DejaVuSans-72" x="789.257812"/>
      <use xlink:href="#DejaVuSans-65" x="828.121094"/>
      <use xlink:href="#DejaVuSans-64" x="889.644531"/>
      <use xlink:href="#DejaVuSans-29" x="953.121094"/>
     </g>
    </g>
    <g id="line2d_35">
     <path d="M 575.202656 64.869844 
L 584.202656 64.869844 
L 593.202656 64.869844 
" style="fill: none; stroke: #808080; stroke-width: 1.5; stroke-linecap: square"/>
    </g>
    <g id="text_19">
     <!-- left_wrist (unfiltered) -->
     <g transform="translate(600.402656 68.019844) scale(0.09 -0.09)">
      <use xlink:href="#DejaVuSans-6c"/>
      <use xlink:href="#DejaVuSans-65" x="27.783203"/>
      <use xlink:href="#DejaVuSans-66" x="89.306641"/>
      <use xlink:href="#DejaVuSans-74" x="122.761719"/>
      <use xlink:href="#DejaVuSans-5f" x="161.970703"/>
      <use xlink:href="#DejaVuSans-77" x="211.970703"/>
      <use xlink:href="#DejaVuSans-72" x="293.757812"/>
      <use xlink:href="#DejaVuSans-69" x="334.871094"/>
      <use xlink:href="#DejaVuSans-73" x="362.654297"/>
      <use xlink:href="#DejaVuSans-74" x="414.753906"/>
      <use xlink:href="#DejaVuSans-20" x="453.962891"/>
      <use xlink:href="#DejaVuSans-28" x="485.75"/>
      <use xlink:href="#DejaVuSans-75" x="524.763672"/>
      <use xlink:href="#DejaVuSans-6e" x="588.142578"/>
      <use xlink:href="#DejaVuSans-66" x="651.521484"/>
      <use xlink:href="#DejaVuSans-69" x="686.726562"/>
      <use xlink:href="#DejaVuSans-6c" x="714.509766"/>
      <use xlink:href="#DejaVuSans-74" x="742.292969"/>
      <use xlink:href="#DejaVuSans-65" x="781.501953"/>
      <use xlink:href="#DejaVuSans-72" x="843.025391"/>
      <use xlink:href="#DejaVuSans-65" x="881.888672"/>
      <use xlink:href="#DejaVuSans-64" x="943.412109"/>
      <use xlink:href="#DejaVuSans-29" x="1006.888672"/>
     </g>
    </g>
    <g id="line2d_36">
     <path d="M 575.202656 78.330469 
L 584.202656 78.330469 
L 593.202656 78.330469 
" style="fill: none; stroke: #808080; stroke-width: 1.5; stroke-linecap: square"/>
    </g>
    <g id="text_20">
     <!-- right_wrist (unfiltered) -->
     <g transform="translate(600.402656 81.480469) scale(0.09 -0.09)">
      <use xlink:href="#DejaVuSans-72"/>
      <use xlink:href="#DejaVuSans-69" x="41.113281"/>
      <use xlink:href="#DejaVuSans-67" x="68.896484"/>
      <use xlink:href="#DejaVuSans-68" x="132.373047"/>
      <use xlink:href="#DejaVuSans-74" x="195.751953"/>
      <use xlink:href="#DejaVuSans-5f" x="234.960938"/>
      <use xlink:href="#DejaVuSans-77" x="284.960938"/>
      <use xlink:href="#DejaVuSans-72" x="366.748047"/>
      <use xlink:href="#DejaVuSans-69" x="407.861328"/>
      <use xlink:href="#DejaVuSans-73" x="435.644531"/>
      <use xlink:href="#DejaVuSans-74" x="487.744141"/>
      <use xlink:href="#DejaVuSans-20" x="526.953125"/>
      <use xlink:href="#DejaVuSans-28" x="558.740234"/>
      <use xlink:href="#DejaVuSans-75" x="597.753906"/>
      <use xlink:href="#DejaVuSans-6e" x="661.132812"/>
      <use xlink:href="#DejaVuSans-66" x="724.511719"/>
      <use xlink:href="#DejaVuSans-69" x="759.716797"/>
      <use xlink:href="#DejaVuSans-6c" x="787.5"/>
      <use xlink:href="#DejaVuSans-74" x="815.283203"/>
      <use xlink:href="#DejaVuSans-65" x="854.492188"/>
      <use xlink:href="#DejaVuSans-72" x="916.015625"/>
      <use xlink:href="#DejaVuSans-65" x="954.878906"/>
      <use xlink:href="#DejaVuSans-64" x="1016.402344"/>
      <use xlink:href="#DejaVuSans-29" x="1079.878906"/>
     </g>
    </g>
   </g>
  </g>
 </g>
 <defs>
  <clipPath id="pc6ad665e88">
   <rect x="47.855" y="26.16" width="661.345" height="255.88"/>
  </clipPath>
 </defs>
</svg>
