<?xml version="1.0" encoding="utf-8" standalone="no"?>
<!DOCTYPE svg PUBLIC "-//W3C//DTD SVG 1.1//EN"
  "http://www.w3.org/Graphics/SVG/1.1/DTD/svg11.dtd">
<svg xmlns:xlink="http://www.w3.org/1999/xlink" width="720pt" height="324pt" viewBox="0 0 720 324" xmlns="http://www.w3.org/2000/svg" version="1.1">
 <metadata>
  <rdf:RDF xmlns:dc="http://purl.org/dc/elements/1.1/" xmlns:cc="http://creativecommons.org/ns#" xmlns:rdf="http://www.w3.org/1999/02/22-rdf-syntax-ns#">
   <cc:Work>
    <dc:type rdf:resource="http://purl.org/dc/dcmitype/StillImage"/>
    <dc:date>2025-09-03T22:16:19.549186</dc:date>
    <dc:format>image/svg+xml</dc:format>
    <dc:creator>
     <cc:Agent>
      <dc:title>Matplotlib v3.9.4, https://matplotlib.org/</dc:title>
     </cc:Agent>
    </dc:creator>
   </cc:Work>
  </rdf:RDF>
 </metadata>
 <defs>
  <style type="text/css">*{stroke-linejoin: round; stroke-linecap: butt}</style>
 </defs>
 <g id="figure_1">
  <g id="patch_1">
   <path d="M 0 324 
L 720 324 
L 720 0 
L 0 0 
z
" style="fill: #ffffff"/>
  </g>
  <g id="axes_1">
   <g id="patch_2">
    <path d="M 47.855 282.04 
L 709.2 282.04 
L 709.2 26.16 
L 47.855 26.16 
z
" style="fill: #ffffff"/>
   </g>
   <g id="line2d_1">
    <path d="M 77.916136 38.449565 
L 83.989093 38.612943 
L 90.06205 38.933948 
L 96.135007 39.052141 
L 102.207964 39.191613 
L 108.280921 39.319622 
L 114.353877 39.226589 
L 120.426834 39.216339 
L 126.499791 39.203621 
L 132.572748 39.12797 
L 138.645705 39.117276 
L 144.718662 39.206655 
L 150.791618 39.048973 
L 156.864575 38.974417 
L 162.937532 38.93446 
L 169.010489 38.811135 
L 175.083446 38.796641 
L 181.156403 38.667215 
L 187.22936 38.650042 
L 193.302316 38.68183 
L 199.375273 38.85636 
L 205.44823 38.955615 
L 211.521187 38.958892 
L 217.594144 38.966166 
L 223.667101 38.979114 
L 229.740057 38.957647 
L 235.813014 38.94952 
L 241.885971 38.926549 
L 247.958928 38.925073 
L 254.031885 43.338618 
L 260.104842 57.536119 
L 266.177798 66.957621 
L 272.250755 71.213206 
L 278.323712 70.40284 
L 284.396669 68.810739 
L 290.469626 67.244542 
L 296.542583 65.468162 
L 302.615539 58.089465 
L 308.688496 47.38687 
L 314.761453 41.499624 
L 320.83441 40.40793 
L 326.907367 40.324378 
L 332.980324 40.174014 
L 339.053281 39.895346 
L 345.126237 40.162928 
L 351.199194 40.150108 
L 357.272151 40.098479 
L 363.345108 39.869505 
L 369.418065 39.92671 
L 375.491022 39.839827 
L 381.563978 39.881003 
L 387.636935 39.680183 
L 393.709892 39.760388 
L 399.782849 39.678987 
L 405.855806 42.687948 
L 411.928763 52.303809 
L 418.001719 57.492914 
L 424.074676 61.915138 
L 430.147633 64.178135 
L 436.22059 63.363063 
L 442.293547 54.57551 
L 448.366504 42.136804 
L 454.439461 39.640018 
L 460.512417 39.154785 
L 466.585374 39.193009 
L 472.658331 39.412508 
L 478.731288 39.407705 
L 484.804245 39.410926 
L 490.877202 39.29272 
L 496.950158 39.228313 
L 503.023115 39.093782 
L 509.096072 39.065844 
L 515.169029 39.12646 
L 521.241986 39.001531 
L 527.314943 38.898326 
L 533.387899 38.886301 
L 539.460856 38.827117 
L 545.533813 38.699509 
L 551.60677 38.501022 
L 557.679727 38.395221 
L 563.752684 38.340384 
L 569.82564 38.339656 
L 575.898597 38.305019 
L 581.971554 38.334947 
L 588.044511 38.400068 
L 594.117468 38.492368 
L 600.190425 38.704374 
L 606.263382 38.88266 
L 612.336338 38.872353 
L 618.409295 38.965294 
L 624.482252 39.145579 
L 630.555209 39.281995 
L 636.628166 39.372242 
L 642.701123 39.444868 
L 648.774079 39.459247 
L 654.847036 39.381534 
L 660.919993 39.337627 
L 666.99295 39.206993 
L 673.065907 38.986127 
L 679.138864 39.218894 
" clip-path="url(#pee3c02f65f)" style="fill: none; stroke: #4c4c4c; stroke-opacity: 0.25; stroke-width: 0.8; stroke-linecap: square"/>
   </g>
   <g id="line2d_2">
    <path d="M 77.916136 64.403662 
L 83.989093 63.969199 
L 90.06205 63.651201 
L 96.135007 63.348152 
L 102.207964 63.052863 
L 108.280921 62.515136 
L 114.353877 62.139365 
L 120.426834 61.93888 
L 126.499791 61.267847 
L 132.572748 60.10571 
L 138.645705 59.909179 
L 144.718662 59.864222 
L 150.791618 59.756973 
L 156.864575 59.579391 
L 162.937532 59.552963 
L 169.010489 59.442683 
L 175.083446 59.539166 
L 181.156403 59.427652 
L 187.22936 59.62498 
L 193.302316 59.88655 
L 199.375273 60.036466 
L 205.44823 60.020365 
L 211.521187 60.20897 
L 217.594144 60.171977 
L 223.667101 60.264964 
L 229.740057 60.295583 
L 235.813014 60.411459 
L 241.885971 60.725728 
L 247.958928 68.128058 
L 254.031885 88.044177 
L 260.104842 105.828023 
L 266.177798 120.086292 
L 272.250755 125.083252 
L 278.323712 129.77527 
L 284.396669 127.76828 
L 290.469626 125.220544 
L 296.542583 122.746238 
L 302.615539 117.895246 
L 308.688496 100.659575 
L 314.761453 71.961812 
L 320.83441 61.973737 
L 326.907367 60.986784 
L 332.980324 60.60007 
L 339.053281 60.196011 
L 345.126237 60.201978 
L 351.199194 60.545622 
L 357.272151 60.555886 
L 363.345108 60.415984 
L 369.418065 60.515938 
L 375.491022 60.445471 
L 381.563978 60.504174 
L 387.636935 60.679035 
L 393.709892 61.105353 
L 399.782849 69.980731 
L 405.855806 99.150242 
L 411.928763 120.547647 
L 418.001719 125.661304 
L 424.074676 126.159527 
L 430.147633 124.897157 
L 436.22059 116.379986 
L 442.293547 96.233477 
L 448.366504 67.250767 
L 454.439461 59.500519 
L 460.512417 59.073787 
L 466.585374 58.594001 
L 472.658331 59.358447 
L 478.731288 59.403819 
L 484.804245 58.880803 
L 490.877202 58.809241 
L 496.950158 58.962774 
L 503.023115 58.887066 
L 509.096072 58.818177 
L 515.169029 58.846829 
L 521.241986 59.095488 
L 527.314943 61.6228 
L 533.387899 80.644363 
L 539.460856 101.677715 
L 545.533813 118.586689 
L 551.60677 128.386236 
L 557.679727 132.533129 
L 563.752684 133.219369 
L 569.82564 131.322798 
L 575.898597 121.233753 
L 581.971554 86.534648 
L 588.044511 63.291467 
L 594.117468 60.956078 
L 600.190425 60.090841 
L 606.263382 59.87205 
L 612.336338 59.848441 
L 618.409295 59.945411 
L 624.482252 59.40201 
L 630.555209 59.609639 
L 636.628166 59.314942 
L 642.701123 59.684009 
L 648.774079 59.756663 
L 654.847036 59.716224 
L 660.919993 59.945301 
L 666.99295 71.556108 
L 673.065907 95.740779 
L 679.138864 118.40786 
" clip-path="url(#pee3c02f65f)" style="fill: none; stroke: #4c4c4c; stroke-opacity: 0.25; stroke-width: 0.8; stroke-linecap: square"/>
   </g>
   <g id="matplotlib.axis_1">
    <g id="xtick_1">
     <g id="line2d_3">
      <path d="M 77.916136 282.04 
L 77.916136 26.16 
" clip-path="url(#pee3c02f65f)" style="fill: none; stroke: #b0b0b0; stroke-opacity: 0.2; stroke-width: 0.8; stroke-linecap: square"/>
     </g>
     <g id="line2d_4">
      <defs>
       <path id="m0227437559" d="M 0 0 
L 0 3.5 
" style="stroke: #000000; stroke-width: 0.8"/>
      </defs>
      <g>
       <use xlink:href="#m0227437559" x="77.916136" y="282.04" style="stroke: #000000; stroke-width: 0.8"/>
      </g>
     </g>
     <g id="text_1">
      <!-- 0 -->
      <g transform="translate(74.734886 296.638438) scale(0.1 -0.1)">
       <defs>
        <path id="DejaVuSans-30" d="M 2034 4250 
Q 1547 4250 1301 3770 
Q 1056 3291 1056 2328 
Q 1056 1369 1301 889 
Q 1547 409 2034 409 
Q 2525 409 2770 889 
Q 3016 1369 3016 2328 
Q 3016 3291 2770 3770 
Q 2525 4250 2034 4250 
z
M 2034 4750 
Q 2819 4750 3233 4129 
Q 3647 3509 3647 2328 
Q 3647 1150 3233 529 
Q 2819 -91 2034 -91 
Q 1250 -91 836 529 
Q 422 1150 422 2328 
Q 422 3509 836 4129 
Q 1250 4750 2034 4750 
z
" transform="scale(0.015625)"/>
       </defs>
       <use xlink:href="#DejaVuSans-30"/>
      </g>
     </g>
    </g>
    <g id="xtick_2">
     <g id="line2d_5">
      <path d="M 169.010489 282.04 
L 169.010489 26.16 
" clip-path="url(#pee3c02f65f)" style="fill: none; stroke: #b0b0b0; stroke-opacity: 0.2; stroke-width: 0.8; stroke-linecap: square"/>
     </g>
     <g id="line2d_6">
      <g>
       <use xlink:href="#m0227437559" x="169.010489" y="282.04" style="stroke: #000000; stroke-width: 0.8"/>
      </g>
     </g>
     <g id="text_2">
      <!-- 2 -->
      <g transform="translate(165.829239 296.638438) scale(0.1 -0.1)">
       <defs>
        <path id="DejaVuSans-32" d="M 1228 531 
L 3431 531 
L 3431 0 
L 469 0 
L 469 531 
Q 828 903 1448 1529 
Q 2069 2156 2228 2338 
Q 2531 2678 2651 2914 
Q 2772 3150 2772 3378 
Q 2772 3750 2511 3984 
Q 2250 4219 1831 4219 
Q 1534 4219 1204 4116 
Q 875 4013 500 3803 
L 500 4441 
Q 881 4594 1212 4672 
Q 1544 4750 1819 4750 
Q 2544 4750 2975 4387 
Q 3406 4025 3406 3419 
Q 3406 3131 3298 2873 
Q 3191 2616 2906 2266 
Q 2828 2175 2409 1742 
Q 1991 1309 1228 531 
z
" transform="scale(0.015625)"/>
       </defs>
       <use xlink:href="#DejaVuSans-32"/>
      </g>
     </g>
    </g>
    <g id="xtick_3">
     <g id="line2d_7">
      <path d="M 260.104842 282.04 
L 260.104842 26.16 
" clip-path="url(#pee3c02f65f)" style="fill: none; stroke: #b0b0b0; stroke-opacity: 0.2; stroke-width: 0.8; stroke-linecap: square"/>
     </g>
     <g id="line2d_8">
      <g>
       <use xlink:href="#m0227437559" x="260.104842" y="282.04" style="stroke: #000000; stroke-width: 0.8"/>
      </g>
     </g>
     <g id="text_3">
      <!-- 4 -->
      <g transform="translate(256.923592 296.638438) scale(0.1 -0.1)">
       <defs>
        <path id="DejaVuSans-34" d="M 2419 4116 
L 825 1625 
L 2419 1625 
L 2419 4116 
z
M 2253 4666 
L 3047 4666 
L 3047 1625 
L 3713 1625 
L 3713 1100 
L 3047 1100 
L 3047 0 
L 2419 0 
L 2419 1100 
L 313 1100 
L 313 1709 
L 2253 4666 
z
" transform="scale(0.015625)"/>
       </defs>
       <use xlink:href="#DejaVuSans-34"/>
      </g>
     </g>
    </g>
    <g id="xtick_4">
     <g id="line2d_9">
      <path d="M 351.199194 282.04 
L 351.199194 26.16 
" clip-path="url(#pee3c02f65f)" style="fill: none; stroke: #b0b0b0; stroke-opacity: 0.2; stroke-width: 0.8; stroke-linecap: square"/>
     </g>
     <g id="line2d_10">
      <g>
       <use xlink:href="#m0227437559" x="351.199194" y="282.04" style="stroke: #000000; stroke-width: 0.8"/>
      </g>
     </g>
     <g id="text_4">
      <!-- 6 -->
      <g transform="translate(348.017944 296.638438) scale(0.1 -0.1)">
       <defs>
        <path id="DejaVuSans-36" d="M 2113 2584 
Q 1688 2584 1439 2293 
Q 1191 2003 1191 1497 
Q 1191 994 1439 701 
Q 1688 409 2113 409 
Q 2538 409 2786 701 
Q 3034 994 3034 1497 
Q 3034 2003 2786 2293 
Q 2538 2584 2113 2584 
z
M 3366 4563 
L 3366 3988 
Q 3128 4100 2886 4159 
Q 2644 4219 2406 4219 
Q 1781 4219 1451 3797 
Q 1122 3375 1075 2522 
Q 1259 2794 1537 2939 
Q 1816 3084 2150 3084 
Q 2853 3084 3261 2657 
Q 3669 2231 3669 1497 
Q 3669 778 3244 343 
Q 2819 -91 2113 -91 
Q 1303 -91 875 529 
Q 447 1150 447 2328 
Q 447 3434 972 4092 
Q 1497 4750 2381 4750 
Q 2619 4750 2861 4703 
Q 3103 4656 3366 4563 
z
" transform="scale(0.015625)"/>
       </defs>
       <use xlink:href="#DejaVuSans-36"/>
      </g>
     </g>
    </g>
    <g id="xtick_5">
     <g id="line2d_11">
      <path d="M 442.293547 282.04 
L 442.293547 26.16 
" clip-path="url(#pee3c02f65f)" style="fill: none; stroke: #b0b0b0; stroke-opacity: 0.2; stroke-width: 0.8; stroke-linecap: square"/>
     </g>
     <g id="line2d_12">
      <g>
       <use xlink:href="#m0227437559" x="442.293547" y="282.04" style="stroke: #000000; stroke-width: 0.8"/>
      </g>
     </g>
     <g id="text_5">
      <!-- 8 -->
      <g transform="translate(439.112297 296.638438) scale(0.1 -0.1)">
       <defs>
        <path id="DejaVuSans-38" d="M 2034 2216 
Q 1584 2216 1326 1975 
Q 1069 1734 1069 1313 
Q 1069 891 1326 650 
Q 1584 409 2034 409 
Q 2484 409 2743 651 
Q 3003 894 3003 1313 
Q 3003 1734 2745 1975 
Q 2488 2216 2034 2216 
z
M 1403 2484 
Q 997 2584 770 2862 
Q 544 3141 544 3541 
Q 544 4100 942 4425 
Q 1341 4750 2034 4750 
Q 2731 4750 3128 4425 
Q 3525 4100 3525 3541 
Q 3525 3141 3298 2862 
Q 3072 2584 2669 2484 
Q 3125 2378 3379 2068 
Q 3634 1759 3634 1313 
Q 3634 634 3220 271 
Q 2806 -91 2034 -91 
Q 1263 -91 848 271 
Q 434 634 434 1313 
Q 434 1759 690 2068 
Q 947 2378 1403 2484 
z
M 1172 3481 
Q 1172 3119 1398 2916 
Q 1625 2713 2034 2713 
Q 2441 2713 2670 2916 
Q 2900 3119 2900 3481 
Q 2900 3844 2670 4047 
Q 2441 4250 2034 4250 
Q 1625 4250 1398 4047 
Q 1172 3844 1172 3481 
z
" transform="scale(0.015625)"/>
       </defs>
       <use xlink:href="#DejaVuSans-38"/>
      </g>
     </g>
    </g>
    <g id="xtick_6">
     <g id="line2d_13">
      <path d="M 533.387899 282.04 
L 533.387899 26.16 
" clip-path="url(#pee3c02f65f)" style="fill: none; stroke: #b0b0b0; stroke-opacity: 0.2; stroke-width: 0.8; stroke-linecap: square"/>
     </g>
     <g id="line2d_14">
      <g>
       <use xlink:href="#m0227437559" x="533.387899" y="282.04" style="stroke: #000000; stroke-width: 0.8"/>
      </g>
     </g>
     <g id="text_6">
      <!-- 10 -->
      <g transform="translate(527.025399 296.638438) scale(0.1 -0.1)">
       <defs>
        <path id="DejaVuSans-31" d="M 794 531 
L 1825 531 
L 1825 4091 
L 703 3866 
L 703 4441 
L 1819 4666 
L 2450 4666 
L 2450 531 
L 3481 531 
L 3481 0 
L 794 0 
L 794 531 
z
" transform="scale(0.015625)"/>
       </defs>
       <use xlink:href="#DejaVuSans-31"/>
       <use xlink:href="#DejaVuSans-30" x="63.623047"/>
      </g>
     </g>
    </g>
    <g id="xtick_7">
     <g id="line2d_15">
      <path d="M 624.482252 282.04 
L 624.482252 26.16 
" clip-path="url(#pee3c02f65f)" style="fill: none; stroke: #b0b0b0; stroke-opacity: 0.2; stroke-width: 0.8; stroke-linecap: square"/>
     </g>
     <g id="line2d_16">
      <g>
       <use xlink:href="#m0227437559" x="624.482252" y="282.04" style="stroke: #000000; stroke-width: 0.8"/>
      </g>
     </g>
     <g id="text_7">
      <!-- 12 -->
      <g transform="translate(618.119752 296.638438) scale(0.1 -0.1)">
       <use xlink:href="#DejaVuSans-31"/>
       <use xlink:href="#DejaVuSans-32" x="63.623047"/>
      </g>
     </g>
    </g>
    <g id="text_8">
     <!-- Time (s) -->
     <g transform="translate(358.198594 310.316563) scale(0.1 -0.1)">
      <defs>
       <path id="DejaVuSans-54" d="M -19 4666 
L 3928 4666 
L 3928 4134 
L 2272 4134 
L 2272 0 
L 1638 0 
L 1638 4134 
L -19 4134 
L -19 4666 
z
" transform="scale(0.015625)"/>
       <path id="DejaVuSans-69" d="M 603 3500 
L 1178 3500 
L 1178 0 
L 603 0 
L 603 3500 
z
M 603 4863 
L 1178 4863 
L 1178 4134 
L 603 4134 
L 603 4863 
z
" transform="scale(0.015625)"/>
       <path id="DejaVuSans-6d" d="M 3328 2828 
Q 3544 3216 3844 3400 
Q 4144 3584 4550 3584 
Q 5097 3584 5394 3201 
Q 5691 2819 5691 2113 
L 5691 0 
L 5113 0 
L 5113 2094 
Q 5113 2597 4934 2840 
Q 4756 3084 4391 3084 
Q 3944 3084 3684 2787 
Q 3425 2491 3425 1978 
L 3425 0 
L 2847 0 
L 2847 2094 
Q 2847 2600 2669 2842 
Q 2491 3084 2119 3084 
Q 1678 3084 1418 2786 
Q 1159 2488 1159 1978 
L 1159 0 
L 581 0 
L 581 3500 
L 1159 3500 
L 1159 2956 
Q 1356 3278 1631 3431 
Q 1906 3584 2284 3584 
Q 2666 3584 2933 3390 
Q 3200 3197 3328 2828 
z
" transform="scale(0.015625)"/>
       <path id="DejaVuSans-65" d="M 3597 1894 
L 3597 1613 
L 953 1613 
Q 991 1019 1311 708 
Q 1631 397 2203 397 
Q 2534 397 2845 478 
Q 3156 559 3463 722 
L 3463 178 
Q 3153 47 2828 -22 
Q 2503 -91 2169 -91 
Q 1331 -91 842 396 
Q 353 884 353 1716 
Q 353 2575 817 3079 
Q 1281 3584 2069 3584 
Q 2775 3584 3186 3129 
Q 3597 2675 3597 1894 
z
M 3022 2063 
Q 3016 2534 2758 2815 
Q 2500 3097 2075 3097 
Q 1594 3097 1305 2825 
Q 1016 2553 972 2059 
L 3022 2063 
z
" transform="scale(0.015625)"/>
       <path id="DejaVuSans-20" transform="scale(0.015625)"/>
       <path id="DejaVuSans-28" d="M 1984 4856 
Q 1566 4138 1362 3434 
Q 1159 2731 1159 2009 
Q 1159 1288 1364 580 
Q 1569 -128 1984 -844 
L 1484 -844 
Q 1016 -109 783 600 
Q 550 1309 550 2009 
Q 550 2706 781 3412 
Q 1013 4119 1484 4856 
L 1984 4856 
z
" transform="scale(0.015625)"/>
       <path id="DejaVuSans-73" d="M 2834 3397 
L 2834 2853 
Q 2591 2978 2328 3040 
Q 2066 3103 1784 3103 
Q 1356 3103 1142 2972 
Q 928 2841 928 2578 
Q 928 2378 1081 2264 
Q 1234 2150 1697 2047 
L 1894 2003 
Q 2506 1872 2764 1633 
Q 3022 1394 3022 966 
Q 3022 478 2636 193 
Q 2250 -91 1575 -91 
Q 1294 -91 989 -36 
Q 684 19 347 128 
L 347 722 
Q 666 556 975 473 
Q 1284 391 1588 391 
Q 1994 391 2212 530 
Q 2431 669 2431 922 
Q 2431 1156 2273 1281 
Q 2116 1406 1581 1522 
L 1381 1569 
Q 847 1681 609 1914 
Q 372 2147 372 2553 
Q 372 3047 722 3315 
Q 1072 3584 1716 3584 
Q 2034 3584 2315 3537 
Q 2597 3491 2834 3397 
z
" transform="scale(0.015625)"/>
       <path id="DejaVuSans-29" d="M 513 4856 
L 1013 4856 
Q 1481 4119 1714 3412 
Q 1947 2706 1947 2009 
Q 1947 1309 1714 600 
Q 1481 -109 1013 -844 
L 513 -844 
Q 928 -128 1133 580 
Q 1338 1288 1338 2009 
Q 1338 2731 1133 3434 
Q 928 4138 513 4856 
z
" transform="scale(0.015625)"/>
      </defs>
      <use xlink:href="#DejaVuSans-54"/>
      <use xlink:href="#DejaVuSans-69" x="57.958984"/>
      <use xlink:href="#DejaVuSans-6d" x="85.742188"/>
      <use xlink:href="#DejaVuSans-65" x="183.154297"/>
      <use xlink:href="#DejaVuSans-20" x="244.677734"/>
      <use xlink:href="#DejaVuSans-28" x="276.464844"/>
      <use xlink:href="#DejaVuSans-73" x="315.478516"/>
      <use xlink:href="#DejaVuSans-29" x="367.578125"/>
     </g>
    </g>
   </g>
   <g id="matplotlib.axis_2">
    <g id="ytick_1">
     <g id="line2d_17">
      <path d="M 47.855 282.04 
L 709.2 282.04 
" clip-path="url(#pee3c02f65f)" style="fill: none; stroke: #b0b0b0; stroke-opacity: 0.2; stroke-width: 0.8; stroke-linecap: square"/>
     </g>
     <g id="line2d_18">
      <defs>
       <path id="mf073cb35f4" d="M 0 0 
L -3.5 0 
" style="stroke: #000000; stroke-width: 0.8"/>
      </defs>
      <g>
       <use xlink:href="#mf073cb35f4" x="47.855" y="282.04" style="stroke: #000000; stroke-width: 0.8"/>
      </g>
     </g>
     <g id="text_9">
      <!-- 0.0 -->
      <g transform="translate(24.951875 285.839219) scale(0.1 -0.1)">
       <defs>
        <path id="DejaVuSans-2e" d="M 684 794 
L 1344 794 
L 1344 0 
L 684 0 
L 684 794 
z
" transform="scale(0.015625)"/>
       </defs>
       <use xlink:href="#DejaVuSans-30"/>
       <use xlink:href="#DejaVuSans-2e" x="63.623047"/>
       <use xlink:href="#DejaVuSans-30" x="95.410156"/>
      </g>
     </g>
    </g>
    <g id="ytick_2">
     <g id="line2d_19">
      <path d="M 47.855 235.590169 
L 709.2 235.590169 
" clip-path="url(#pee3c02f65f)" style="fill: none; stroke: #b0b0b0; stroke-opacity: 0.2; stroke-width: 0.8; stroke-linecap: square"/>
     </g>
     <g id="line2d_20">
      <g>
       <use xlink:href="#mf073cb35f4" x="47.855" y="235.590169" style="stroke: #000000; stroke-width: 0.8"/>
      </g>
     </g>
     <g id="text_10">
      <!-- 0.2 -->
      <g transform="translate(24.951875 239.389388) scale(0.1 -0.1)">
       <use xlink:href="#DejaVuSans-30"/>
       <use xlink:href="#DejaVuSans-2e" x="63.623047"/>
       <use xlink:href="#DejaVuSans-32" x="95.410156"/>
      </g>
     </g>
    </g>
    <g id="ytick_3">
     <g id="line2d_21">
      <path d="M 47.855 189.140339 
L 709.2 189.140339 
" clip-path="url(#pee3c02f65f)" style="fill: none; stroke: #b0b0b0; stroke-opacity: 0.2; stroke-width: 0.8; stroke-linecap: square"/>
     </g>
     <g id="line2d_22">
      <g>
       <use xlink:href="#mf073cb35f4" x="47.855" y="189.140339" style="stroke: #000000; stroke-width: 0.8"/>
      </g>
     </g>
     <g id="text_11">
      <!-- 0.4 -->
      <g transform="translate(24.951875 192.939557) scale(0.1 -0.1)">
       <use xlink:href="#DejaVuSans-30"/>
       <use xlink:href="#DejaVuSans-2e" x="63.623047"/>
       <use xlink:href="#DejaVuSans-34" x="95.410156"/>
      </g>
     </g>
    </g>
    <g id="ytick_4">
     <g id="line2d_23">
      <path d="M 47.855 142.690508 
L 709.2 142.690508 
" clip-path="url(#pee3c02f65f)" style="fill: none; stroke: #b0b0b0; stroke-opacity: 0.2; stroke-width: 0.8; stroke-linecap: square"/>
     </g>
     <g id="line2d_24">
      <g>
       <use xlink:href="#mf073cb35f4" x="47.855" y="142.690508" style="stroke: #000000; stroke-width: 0.8"/>
      </g>
     </g>
     <g id="text_12">
      <!-- 0.6 -->
      <g transform="translate(24.951875 146.489727) scale(0.1 -0.1)">
       <use xlink:href="#DejaVuSans-30"/>
       <use xlink:href="#DejaVuSans-2e" x="63.623047"/>
       <use xlink:href="#DejaVuSans-36" x="95.410156"/>
      </g>
     </g>
    </g>
    <g id="ytick_5">
     <g id="line2d_25">
      <path d="M 47.855 96.240677 
L 709.2 96.240677 
" clip-path="url(#pee3c02f65f)" style="fill: none; stroke: #b0b0b0; stroke-opacity: 0.2; stroke-width: 0.8; stroke-linecap: square"/>
     </g>
     <g id="line2d_26">
      <g>
       <use xlink:href="#mf073cb35f4" x="47.855" y="96.240677" style="stroke: #000000; stroke-width: 0.8"/>
      </g>
     </g>
     <g id="text_13">
      <!-- 0.8 -->
      <g transform="translate(24.951875 100.039896) scale(0.1 -0.1)">
       <use xlink:href="#DejaVuSans-30"/>
       <use xlink:href="#DejaVuSans-2e" x="63.623047"/>
       <use xlink:href="#DejaVuSans-38" x="95.410156"/>
      </g>
     </g>
    </g>
    <g id="ytick_6">
     <g id="line2d_27">
      <path d="M 47.855 49.790846 
L 709.2 49.790846 
" clip-path="url(#pee3c02f65f)" style="fill: none; stroke: #b0b0b0; stroke-opacity: 0.2; stroke-width: 0.8; stroke-linecap: square"/>
     </g>
     <g id="line2d_28">
      <g>
       <use xlink:href="#mf073cb35f4" x="47.855" y="49.790846" style="stroke: #000000; stroke-width: 0.8"/>
      </g>
     </g>
     <g id="text_14">
      <!-- 1.0 -->
      <g transform="translate(24.951875 53.590065) scale(0.1 -0.1)">
       <use xlink:href="#DejaVuSans-31"/>
       <use xlink:href="#DejaVuSans-2e" x="63.623047"/>
       <use xlink:href="#DejaVuSans-30" x="95.410156"/>
      </g>
     </g>
    </g>
    <g id="text_15">
     <!-- Position (norm units) -->
     <g transform="translate(18.872188 206.001562) rotate(-90) scale(0.1 -0.1)">
      <defs>
       <path id="DejaVuSans-50" d="M 1259 4147 
L 1259 2394 
L 2053 2394 
Q 2494 2394 2734 2622 
Q 2975 2850 2975 3272 
Q 2975 3691 2734 3919 
Q 2494 4147 2053 4147 
L 1259 4147 
z
M 628 4666 
L 2053 4666 
Q 2838 4666 3239 4311 
Q 3641 3956 3641 3272 
Q 3641 2581 3239 2228 
Q 2838 1875 2053 1875 
L 1259 1875 
L 1259 0 
L 628 0 
L 628 4666 
z
" transform="scale(0.015625)"/>
       <path id="DejaVuSans-6f" d="M 1959 3097 
Q 1497 3097 1228 2736 
Q 959 2375 959 1747 
Q 959 1119 1226 758 
Q 1494 397 1959 397 
Q 2419 397 2687 759 
Q 2956 1122 2956 1747 
Q 2956 2369 2687 2733 
Q 2419 3097 1959 3097 
z
M 1959 3584 
Q 2709 3584 3137 3096 
Q 3566 2609 3566 1747 
Q 3566 888 3137 398 
Q 2709 -91 1959 -91 
Q 1206 -91 779 398 
Q 353 888 353 1747 
Q 353 2609 779 3096 
Q 1206 3584 1959 3584 
z
" transform="scale(0.015625)"/>
       <path id="DejaVuSans-74" d="M 1172 4494 
L 1172 3500 
L 2356 3500 
L 2356 3053 
L 1172 3053 
L 1172 1153 
Q 1172 725 1289 603 
Q 1406 481 1766 481 
L 2356 481 
L 2356 0 
L 1766 0 
Q 1100 0 847 248 
Q 594 497 594 1153 
L 594 3053 
L 172 3053 
L 172 3500 
L 594 3500 
L 594 4494 
L 1172 4494 
z
" transform="scale(0.015625)"/>
       <path id="DejaVuSans-6e" d="M 3513 2113 
L 3513 0 
L 2938 0 
L 2938 2094 
Q 2938 2591 2744 2837 
Q 2550 3084 2163 3084 
Q 1697 3084 1428 2787 
Q 1159 2491 1159 1978 
L 1159 0 
L 581 0 
L 581 3500 
L 1159 3500 
L 1159 2956 
Q 1366 3272 1645 3428 
Q 1925 3584 2291 3584 
Q 2894 3584 3203 3211 
Q 3513 2838 3513 2113 
z
" transform="scale(0.015625)"/>
       <path id="DejaVuSans-72" d="M 2631 2963 
Q 2534 3019 2420 3045 
Q 2306 3072 2169 3072 
Q 1681 3072 1420 2755 
Q 1159 2438 1159 1844 
L 1159 0 
L 581 0 
L 581 3500 
L 1159 3500 
L 1159 2956 
Q 1341 3275 1631 3429 
Q 1922 3584 2338 3584 
Q 2397 3584 2469 3576 
Q 2541 3569 2628 3553 
L 2631 2963 
z
" transform="scale(0.015625)"/>
       <path id="DejaVuSans-75" d="M 544 1381 
L 544 3500 
L 1119 3500 
L 1119 1403 
Q 1119 906 1312 657 
Q 1506 409 1894 409 
Q 2359 409 2629 706 
Q 2900 1003 2900 1516 
L 2900 3500 
L 3475 3500 
L 3475 0 
L 2900 0 
L 2900 538 
Q 2691 219 2414 64 
Q 2138 -91 1772 -91 
Q 1169 -91 856 284 
Q 544 659 544 1381 
z
M 1991 3584 
L 1991 3584 
z
" transform="scale(0.015625)"/>
      </defs>
      <use xlink:href="#DejaVuSans-50"/>
      <use xlink:href="#DejaVuSans-6f" x="56.677734"/>
      <use xlink:href="#DejaVuSans-73" x="117.859375"/>
      <use xlink:href="#DejaVuSans-69" x="169.958984"/>
      <use xlink:href="#DejaVuSans-74" x="197.742188"/>
      <use xlink:href="#DejaVuSans-69" x="236.951172"/>
      <use xlink:href="#DejaVuSans-6f" x="264.734375"/>
      <use xlink:href="#DejaVuSans-6e" x="325.916016"/>
      <use xlink:href="#DejaVuSans-20" x="389.294922"/>
      <use xlink:href="#DejaVuSans-28" x="421.082031"/>
      <use xlink:href="#DejaVuSans-6e" x="460.095703"/>
      <use xlink:href="#DejaVuSans-6f" x="523.474609"/>
      <use xlink:href="#DejaVuSans-72" x="584.65625"/>
      <use xlink:href="#DejaVuSans-6d" x="624.019531"/>
      <use xlink:href="#DejaVuSans-20" x="721.431641"/>
      <use xlink:href="#DejaVuSans-75" x="753.21875"/>
      <use xlink:href="#DejaVuSans-6e" x="816.597656"/>
      <use xlink:href="#DejaVuSans-69" x="879.976562"/>
      <use xlink:href="#DejaVuSans-74" x="907.759766"/>
      <use xlink:href="#DejaVuSans-73" x="946.96875"/>
      <use xlink:href="#DejaVuSans-29" x="999.068359"/>
     </g>
    </g>
   </g>
   <g id="patch_3">
    <path d="M 47.855 282.04 
L 47.855 26.16 
" style="fill: none; stroke: #000000; stroke-width: 0.8; stroke-linejoin: miter; stroke-linecap: square"/>
   </g>
   <g id="patch_4">
    <path d="M 709.2 282.04 
L 709.2 26.16 
" style="fill: none; stroke: #000000; stroke-width: 0.8; stroke-linejoin: miter; stroke-linecap: square"/>
   </g>
   <g id="patch_5">
    <path d="M 47.855 282.04 
L 709.2 282.04 
" style="fill: none; stroke: #000000; stroke-width: 0.8; stroke-linejoin: miter; stroke-linecap: square"/>
   </g>
   <g id="patch_6">
    <path d="M 47.855 26.16 
L 709.2 26.16 
" style="fill: none; stroke: #000000; stroke-width: 0.8; stroke-linejoin: miter; stroke-linecap: square"/>
   </g>
   <g id="line2d_29">
    <path d="M 77.916136 38.449628 
L 83.989093 38.673688 
L 90.06205 38.882632 
L 96.135007 39.057336 
L 102.207964 39.180834 
L 108.280921 39.245226 
L 114.353877 39.256841 
L 120.426834 39.235537 
L 126.499791 39.203197 
L 132.572748 39.173637 
L 138.645705 39.148161 
L 144.718662 39.115345 
L 150.791618 39.063151 
L 156.864575 38.991564 
L 162.937532 38.908696 
L 169.010489 38.823525 
L 175.083446 38.747806 
L 181.156403 38.700122 
L 187.22936 38.702403 
L 193.302316 38.76453 
L 199.375273 38.867355 
L 205.44823 38.960783 
L 211.521187 38.975598 
L 217.594144 38.838712 
L 223.667101 38.510222 
L 229.740057 38.085522 
L 235.813014 37.966113 
L 241.885971 38.988415 
L 247.958928 42.22616 
L 254.031885 48.201128 
L 260.104842 56.002247 
L 266.177798 63.503759 
L 272.250755 68.726624 
L 278.323712 70.896966 
L 284.396669 70.307615 
L 290.469626 67.477036 
L 296.542583 62.682389 
L 302.615539 56.382846 
L 308.688496 49.768083 
L 314.761453 44.372505 
L 320.83441 41.071202 
L 326.907367 39.678298 
L 332.980324 39.437523 
L 339.053281 39.652716 
L 345.126237 39.92412 
L 351.199194 40.090163 
L 357.272151 40.121165 
L 363.345108 40.038426 
L 369.418065 39.853049 
L 375.491022 39.557786 
L 381.563978 39.206205 
L 387.636935 39.054084 
L 393.709892 39.66556 
L 399.782849 41.799641 
L 405.855806 45.899895 
L 411.928763 51.476324 
L 418.001719 57.102885 
L 424.074676 61.063314 
L 430.147633 61.964982 
L 436.22059 59.221544 
L 442.293547 53.597534 
L 448.366504 47.168845 
L 454.439461 42.112023 
L 460.512417 39.35562 
L 466.585374 38.488748 
L 472.658331 38.604119 
L 478.731288 38.974195 
L 484.804245 39.23968 
L 490.877202 39.323939 
L 496.950158 39.283541 
L 503.023115 39.198879 
L 509.096072 39.120508 
L 515.169029 39.05838 
L 521.241986 39.001565 
L 527.314943 38.940792 
L 533.387899 38.869325 
L 539.460856 38.777623 
L 545.533813 38.662602 
L 551.60677 38.53822 
L 557.679727 38.42866 
L 563.752684 38.351652 
L 569.82564 38.312037 
L 575.898597 38.309367 
L 581.971554 38.34543 
L 588.044511 38.422301 
L 594.117468 38.534787 
L 600.190425 38.665523 
L 606.263382 38.792991 
L 612.336338 38.910036 
L 618.409295 39.02677 
L 624.482252 39.150152 
L 630.555209 39.26996 
L 636.628166 39.365875 
L 642.701123 39.419282 
L 648.774079 39.420326 
L 654.847036 39.373128 
L 660.919993 39.298161 
L 666.99295 39.230153 
L 673.065907 39.20321 
L 679.138864 39.217895 
" clip-path="url(#pee3c02f65f)" style="fill: none; stroke: #1f77b4; stroke-width: 1.8; stroke-linecap: square"/>
   </g>
   <g id="line2d_30">
    <path d="M 77.916136 64.403288 
L 83.989093 64.037858 
L 90.06205 63.685463 
L 96.135007 63.34177 
L 102.207964 62.987133 
L 108.280921 62.601954 
L 114.353877 62.166344 
L 120.426834 61.655231 
L 126.499791 61.075871 
L 132.572748 60.512274 
L 138.645705 60.076077 
L 144.718662 59.805694 
L 150.791618 59.655255 
L 156.864575 59.564514 
L 162.937532 59.503491 
L 169.010489 59.470869 
L 175.083446 59.481299 
L 181.156403 59.555187 
L 187.22936 59.700993 
L 193.302316 59.892926 
L 199.375273 60.067346 
L 205.44823 60.13293 
L 211.521187 59.978473 
L 217.594144 59.522771 
L 223.667101 58.876508 
L 229.740057 58.619863 
L 235.813014 60.049034 
L 241.885971 64.974138 
L 247.958928 74.628001 
L 254.031885 88.259877 
L 260.104842 103.051993 
L 266.177798 115.790257 
L 272.250755 124.574436 
L 278.323712 129.105734 
L 284.396669 129.907492 
L 290.469626 127.379033 
L 296.542583 121.178006 
L 302.615539 110.56992 
L 308.688496 96.06434 
L 314.761453 80.6804 
L 320.83441 68.453449 
L 326.907367 61.430734 
L 332.980324 58.847749 
L 339.053281 58.743534 
L 345.126237 59.495957 
L 351.199194 60.212691 
L 357.272151 60.519923 
L 363.345108 60.299515 
L 369.418065 59.575789 
L 375.491022 58.637531 
L 381.563978 58.384792 
L 387.636935 60.630702 
L 393.709892 67.707581 
L 399.782849 80.726275 
L 405.855806 97.516595 
L 411.928763 113.162687 
L 418.001719 123.325082 
L 424.074676 126.257316 
L 430.147633 121.858576 
L 436.22059 110.66322 
L 442.293547 94.651886 
L 448.366504 78.058235 
L 454.439461 65.480377 
L 460.512417 58.823505 
L 466.585374 56.876168 
L 472.658331 57.293587 
L 478.731288 58.256334 
L 484.804245 58.889736 
L 490.877202 58.976019 
L 496.950158 58.546509 
L 503.023115 57.746369 
L 509.096072 57.041704 
L 515.169029 57.558004 
L 521.241986 61.152129 
L 527.314943 69.635494 
L 533.387899 83.192811 
L 539.460856 99.564582 
L 545.533813 115.192636 
L 551.60677 127.058316 
L 557.679727 133.387968 
L 563.752684 133.137305 
L 569.82564 125.513806 
L 575.898597 110.844329 
L 581.971554 92.266506 
L 588.044511 75.223753 
L 594.117468 63.905706 
L 600.190425 58.771308 
L 606.263382 57.701975 
L 612.336338 58.333063 
L 618.409295 59.172725 
L 624.482252 59.595167 
L 630.555209 59.455473 
L 636.628166 58.788037 
L 642.701123 57.819145 
L 648.774079 57.307349 
L 654.847036 58.95639 
L 660.919993 65.238537 
L 666.99295 78.024653 
L 673.065907 96.815166 
L 679.138864 118.409008 
" clip-path="url(#pee3c02f65f)" style="fill: none; stroke: #ff7f0e; stroke-width: 1.8; stroke-linecap: square"/>
   </g>
   <g id="text_16">
    <!-- Position magnitude vs Time — Wrists -->
    <g transform="translate(267.424375 20.16) scale(0.12 -0.12)">
     <defs>
      <path id="DejaVuSans-61" d="M 2194 1759 
Q 1497 1759 1228 1600 
Q 959 1441 959 1056 
Q 959 750 1161 570 
Q 1363 391 1709 391 
Q 2188 391 2477 730 
Q 2766 1069 2766 1631 
L 2766 1759 
L 2194 1759 
z
M 3341 1997 
L 3341 0 
L 2766 0 
L 2766 531 
Q 2569 213 2275 61 
Q 1981 -91 1556 -91 
Q 1019 -91 701 211 
Q 384 513 384 1019 
Q 384 1609 779 1909 
Q 1175 2209 1959 2209 
L 2766 2209 
L 2766 2266 
Q 2766 2663 2505 2880 
Q 2244 3097 1772 3097 
Q 1472 3097 1187 3025 
Q 903 2953 641 2809 
L 641 3341 
Q 956 3463 1253 3523 
Q 1550 3584 1831 3584 
Q 2591 3584 2966 3190 
Q 3341 2797 3341 1997 
z
" transform="scale(0.015625)"/>
      <path id="DejaVuSans-67" d="M 2906 1791 
Q 2906 2416 2648 2759 
Q 2391 3103 1925 3103 
Q 1463 3103 1205 2759 
Q 947 2416 947 1791 
Q 947 1169 1205 825 
Q 1463 481 1925 481 
Q 2391 481 2648 825 
Q 2906 1169 2906 1791 
z
M 3481 434 
Q 3481 -459 3084 -895 
Q 2688 -1331 1869 -1331 
Q 1566 -1331 1297 -1286 
Q 1028 -1241 775 -1147 
L 775 -588 
Q 1028 -725 1275 -790 
Q 1522 -856 1778 -856 
Q 2344 -856 2625 -561 
Q 2906 -266 2906 331 
L 2906 616 
Q 2728 306 2450 153 
Q 2172 0 1784 0 
Q 1141 0 747 490 
Q 353 981 353 1791 
Q 353 2603 747 3093 
Q 1141 3584 1784 3584 
Q 2172 3584 2450 3431 
Q 2728 3278 2906 2969 
L 2906 3500 
L 3481 3500 
L 3481 434 
z
" transform="scale(0.015625)"/>
      <path id="DejaVuSans-64" d="M 2906 2969 
L 2906 4863 
L 3481 4863 
L 3481 0 
L 2906 0 
L 2906 525 
Q 2725 213 2448 61 
Q 2172 -91 1784 -91 
Q 1150 -91 751 415 
Q 353 922 353 1747 
Q 353 2572 751 3078 
Q 1150 3584 1784 3584 
Q 2172 3584 2448 3432 
Q 2725 3281 2906 2969 
z
M 947 1747 
Q 947 1113 1208 752 
Q 1469 391 1925 391 
Q 2381 391 2643 752 
Q 2906 1113 2906 1747 
Q 2906 2381 2643 2742 
Q 2381 3103 1925 3103 
Q 1469 3103 1208 2742 
Q 947 2381 947 1747 
z
" transform="scale(0.015625)"/>
      <path id="DejaVuSans-76" d="M 191 3500 
L 800 3500 
L 1894 563 
L 2988 3500 
L 3597 3500 
L 2284 0 
L 1503 0 
L 191 3500 
z
" transform="scale(0.015625)"/>
      <path id="DejaVuSans-2014" d="M 313 1978 
L 6088 1978 
L 6088 1528 
L 313 1528 
L 313 1978 
z
" transform="scale(0.015625)"/>
      <path id="DejaVuSans-57" d="M 213 4666 
L 850 4666 
L 1831 722 
L 2809 4666 
L 3519 4666 
L 4500 722 
L 5478 4666 
L 6119 4666 
L 4947 0 
L 4153 0 
L 3169 4050 
L 2175 0 
L 1381 0 
L 213 4666 
z
" transform="scale(0.015625)"/>
     </defs>
     <use xlink:href="#DejaVuSans-50"/>
     <use xlink:href="#DejaVuSans-6f" x="56.677734"/>
     <use xlink:href="#DejaVuSans-73" x="117.859375"/>
     <use xlink:href="#DejaVuSans-69" x="169.958984"/>
     <use xlink:href="#DejaVuSans-74" x="197.742188"/>
     <use xlink:href="#DejaVuSans-69" x="236.951172"/>
     <use xlink:href="#DejaVuSans-6f" x="264.734375"/>
     <use xlink:href="#DejaVuSans-6e" x="325.916016"/>
     <use xlink:href="#DejaVuSans-20" x="389.294922"/>
     <use xlink:href="#DejaVuSans-6d" x="421.082031"/>
     <use xlink:href="#DejaVuSans-61" x="518.494141"/>
     <use xlink:href="#DejaVuSans-67" x="579.773438"/>
     <use xlink:href="#DejaVuSans-6e" x="643.25"/>
     <use xlink:href="#DejaVuSans-69" x="706.628906"/>
     <use xlink:href="#DejaVuSans-74" x="734.412109"/>
     <use xlink:href="#DejaVuSans-75" x="773.621094"/>
     <use xlink:href="#DejaVuSans-64" x="837"/>
     <use xlink:href="#DejaVuSans-65" x="900.476562"/>
     <use xlink:href="#DejaVuSans-20" x="962"/>
     <use xlink:href="#DejaVuSans-76" x="993.787109"/>
     <use xlink:href="#DejaVuSans-73" x="1052.966797"/>
     <use xlink:href="#DejaVuSans-20" x="1105.066406"/>
     <use xlink:href="#DejaVuSans-54" x="1136.853516"/>
     <use xlink:href="#DejaVuSans-69" x="1194.8125"/>
     <use xlink:href="#DejaVuSans-6d" x="1222.595703"/>
     <use xlink:href="#DejaVuSans-65" x="1320.007812"/>
     <use xlink:href="#DejaVuSans-20" x="1381.53125"/>
     <use xlink:href="#DejaVuSans-2014" x="1413.318359"/>
     <use xlink:href="#DejaVuSans-20" x="1513.318359"/>
     <use xlink:href="#DejaVuSans-57" x="1545.105469"/>
     <use xlink:href="#DejaVuSans-72" x="1639.482422"/>
     <use xlink:href="#DejaVuSans-69" x="1680.595703"/>
     <use xlink:href="#DejaVuSans-73" x="1708.378906"/>
     <use xlink:href="#DejaVuSans-74" x="1760.478516"/>
     <use xlink:href="#DejaVuSans-73" x="1799.6875"/>
    </g>
   </g>
   <g id="legend_1">
    <g id="patch_7">
     <path d="M 583.896094 59.780625 
L 702.9 59.780625 
Q 704.7 59.780625 704.7 57.980625 
L 704.7 32.46 
Q 704.7 30.66 702.9 30.66 
L 583.896094 30.66 
Q 582.096094 30.66 582.096094 32.46 
L 582.096094 57.980625 
Q 582.096094 59.780625 583.896094 59.780625 
z
" style="fill: #ffffff; opacity: 0.8; stroke: #cccccc; stroke-linejoin: miter"/>
    </g>
    <g id="line2d_31">
     <path d="M 585.696094 37.948594 
L 594.696094 37.948594 
L 603.696094 37.948594 
" style="fill: none; stroke: #1f77b4; stroke-width: 1.8; stroke-linecap: square"/>
    </g>
    <g id="text_17">
     <!-- Left wrist (filtered) -->
     <g transform="translate(610.896094 41.098594) scale(0.09 -0.09)">
      <defs>
       <path id="DejaVuSans-4c" d="M 628 4666 
L 1259 4666 
L 1259 531 
L 3531 531 
L 3531 0 
L 628 0 
L 628 4666 
z
" transform="scale(0.015625)"/>
       <path id="DejaVuSans-66" d="M 2375 4863 
L 2375 4384 
L 1825 4384 
Q 1516 4384 1395 4259 
Q 1275 4134 1275 3809 
L 1275 3500 
L 2222 3500 
L 2222 3053 
L 1275 3053 
L 1275 0 
L 697 0 
L 697 3053 
L 147 3053 
L 147 3500 
L 697 3500 
L 697 3744 
Q 697 4328 969 4595 
Q 1241 4863 1831 4863 
L 2375 4863 
z
" transform="scale(0.015625)"/>
       <path id="DejaVuSans-77" d="M 269 3500 
L 844 3500 
L 1563 769 
L 2278 3500 
L 2956 3500 
L 3675 769 
L 4391 3500 
L 4966 3500 
L 4050 0 
L 3372 0 
L 2619 2869 
L 1863 0 
L 1184 0 
L 269 3500 
z
" transform="scale(0.015625)"/>
       <path id="DejaVuSans-6c" d="M 603 4863 
L 1178 4863 
L 1178 0 
L 603 0 
L 603 4863 
z
" transform="scale(0.015625)"/>
      </defs>
      <use xlink:href="#DejaVuSans-4c"/>
      <use xlink:href="#DejaVuSans-65" x="53.962891"/>
      <use xlink:href="#DejaVuSans-66" x="115.486328"/>
      <use xlink:href="#DejaVuSans-74" x="148.941406"/>
      <use xlink:href="#DejaVuSans-20" x="188.150391"/>
      <use xlink:href="#DejaVuSans-77" x="219.9375"/>
      <use xlink:href="#DejaVuSans-72" x="301.724609"/>
      <use xlink:href="#DejaVuSans-69" x="342.837891"/>
      <use xlink:href="#DejaVuSans-73" x="370.621094"/>
      <use xlink:href="#DejaVuSans-74" x="422.720703"/>
      <use xlink:href="#DejaVuSans-20" x="461.929688"/>
      <use xlink:href="#DejaVuSans-28" x="493.716797"/>
      <use xlink:href="#DejaVuSans-66" x="532.730469"/>
      <use xlink:href="#DejaVuSans-69" x="567.935547"/>
      <use xlink:href="#DejaVuSans-6c" x="595.71875"/>
      <use xlink:href="#DejaVuSans-74" x="623.501953"/>
      <use xlink:href="#DejaVuSans-65" x="662.710938"/>
      <use xlink:href="#DejaVuSans-72" x="724.234375"/>
      <use xlink:href="#DejaVuSans-65" x="763.097656"/>
      <use xlink:href="#DejaVuSans-64" x="824.621094"/>
      <use xlink:href="#DejaVuSans-29" x="888.097656"/>
     </g>
    </g>
    <g id="line2d_32">
     <path d="M 585.696094 51.158906 
L 594.696094 51.158906 
L 603.696094 51.158906 
" style="fill: none; stroke: #ff7f0e; stroke-width: 1.8; stroke-linecap: square"/>
    </g>
    <g id="text_18">
     <!-- Right wrist (filtered) -->
     <g transform="translate(610.896094 54.308906) scale(0.09 -0.09)">
      <defs>
       <path id="DejaVuSans-52" d="M 2841 2188 
Q 3044 2119 3236 1894 
Q 3428 1669 3622 1275 
L 4263 0 
L 3584 0 
L 2988 1197 
Q 2756 1666 2539 1819 
Q 2322 1972 1947 1972 
L 1259 1972 
L 1259 0 
L 628 0 
L 628 4666 
L 2053 4666 
Q 2853 4666 3247 4331 
Q 3641 3997 3641 3322 
Q 3641 2881 3436 2590 
Q 3231 2300 2841 2188 
z
M 1259 4147 
L 1259 2491 
L 2053 2491 
Q 2509 2491 2742 2702 
Q 2975 2913 2975 3322 
Q 2975 3731 2742 3939 
Q 2509 4147 2053 4147 
L 1259 4147 
z
" transform="scale(0.015625)"/>
       <path id="DejaVuSans-68" d="M 3513 2113 
L 3513 0 
L 2938 0 
L 2938 2094 
Q 2938 2591 2744 2837 
Q 2550 3084 2163 3084 
Q 1697 3084 1428 2787 
Q 1159 2491 1159 1978 
L 1159 0 
L 581 0 
L 581 4863 
L 1159 4863 
L 1159 2956 
Q 1366 3272 1645 3428 
Q 1925 3584 2291 3584 
Q 2894 3584 3203 3211 
Q 3513 2838 3513 2113 
z
" transform="scale(0.015625)"/>
      </defs>
      <use xlink:href="#DejaVuSans-52"/>
      <use xlink:href="#DejaVuSans-69" x="69.482422"/>
      <use xlink:href="#DejaVuSans-67" x="97.265625"/>
      <use xlink:href="#DejaVuSans-68" x="160.742188"/>
      <use xlink:href="#DejaVuSans-74" x="224.121094"/>
      <use xlink:href="#DejaVuSans-20" x="263.330078"/>
      <use xlink:href="#DejaVuSans-77" x="295.117188"/>
      <use xlink:href="#DejaVuSans-72" x="376.904297"/>
      <use xlink:href="#DejaVuSans-69" x="418.017578"/>
      <use xlink:href="#DejaVuSans-73" x="445.800781"/>
      <use xlink:href="#DejaVuSans-74" x="497.900391"/>
      <use xlink:href="#DejaVuSans-20" x="537.109375"/>
      <use xlink:href="#DejaVuSans-28" x="568.896484"/>
      <use xlink:href="#DejaVuSans-66" x="607.910156"/>
      <use xlink:href="#DejaVuSans-69" x="643.115234"/>
      <use xlink:href="#DejaVuSans-6c" x="670.898438"/>
      <use xlink:href="#DejaVuSans-74" x="698.681641"/>
      <use xlink:href="#DejaVuSans-65" x="737.890625"/>
      <use xlink:href="#DejaVuSans-72" x="799.414062"/>
      <use xlink:href="#DejaVuSans-65" x="838.277344"/>
      <use xlink:href="#DejaVuSans-64" x="899.800781"/>
      <use xlink:href="#DejaVuSans-29" x="963.277344"/>
     </g>
    </g>
   </g>
  </g>
 </g>
 <defs>
  <clipPath id="pee3c02f65f">
   <rect x="47.855" y="26.16" width="661.345" height="255.88"/>
  </clipPath>
 </defs>
</svg>
