<?xml version="1.0" encoding="utf-8" standalone="no"?>
<!DOCTYPE svg PUBLIC "-//W3C//DTD SVG 1.1//EN"
  "http://www.w3.org/Graphics/SVG/1.1/DTD/svg11.dtd">
<svg xmlns:xlink="http://www.w3.org/1999/xlink" width="720pt" height="345.6pt" viewBox="0 0 720 345.6" xmlns="http://www.w3.org/2000/svg" version="1.1">
 <metadata>
  <rdf:RDF xmlns:dc="http://purl.org/dc/elements/1.1/" xmlns:cc="http://creativecommons.org/ns#" xmlns:rdf="http://www.w3.org/1999/02/22-rdf-syntax-ns#">
   <cc:Work>
    <dc:type rdf:resource="http://purl.org/dc/dcmitype/StillImage"/>
    <dc:date>2025-09-03T22:16:22.037251</dc:date>
    <dc:format>image/svg+xml</dc:format>
    <dc:creator>
     <cc:Agent>
      <dc:title>Matplotlib v3.9.4, https://matplotlib.org/</dc:title>
     </cc:Agent>
    </dc:creator>
   </cc:Work>
  </rdf:RDF>
 </metadata>
 <defs>
  <style type="text/css">*{stroke-linejoin: round; stroke-linecap: butt}</style>
 </defs>
 <g id="figure_1">
  <g id="patch_1">
   <path d="M 0 345.6 
L 720 345.6 
L 720 0 
L 0 0 
z
" style="fill: #ffffff"/>
  </g>
  <g id="axes_1">
   <g id="patch_2">
    <path d="M 47.855 303.64 
L 709.2 303.64 
L 709.2 26.16 
L 47.855 26.16 
z
" style="fill: #ffffff"/>
   </g>
   <g id="line2d_1">
    <path d="M 77.916136 282.747664 
L 83.989093 290.943494 
L 90.06205 301.051548 
L 96.135007 300.677128 
L 102.207964 296.321469 
L 108.280921 296.492391 
L 114.353877 300.324873 
L 120.426834 300.113538 
L 126.499791 300.846182 
L 132.572748 297.794827 
L 138.645705 297.371456 
L 144.718662 301.222342 
L 150.791618 294.656083 
L 156.864575 294.398686 
L 162.937532 298.039505 
L 169.010489 301.405352 
L 175.083446 302.219522 
L 181.156403 302.266083 
L 187.22936 302.963811 
L 193.302316 302.648175 
L 199.375273 302.909016 
L 205.44823 303.350045 
L 211.521187 301.984256 
L 217.594144 302.522053 
L 223.667101 301.511265 
L 229.740057 294.491555 
L 235.813014 284.622375 
L 241.885971 272.265528 
L 247.958928 214.475958 
L 254.031885 111.104106 
L 260.104842 120.941726 
L 266.177798 234.609058 
L 272.250755 251.825928 
L 278.323712 236.602904 
L 284.396669 252.930817 
L 290.469626 248.578297 
L 296.542583 210.579746 
L 302.615539 173.70415 
L 308.688496 195.80474 
L 314.761453 253.306162 
L 320.83441 290.894375 
L 326.907367 300.272343 
L 332.980324 301.694411 
L 339.053281 303.271713 
L 345.126237 302.525697 
L 351.199194 302.614378 
L 357.272151 301.999118 
L 363.345108 301.732384 
L 369.418065 302.935729 
L 375.491022 302.171628 
L 381.563978 286.054836 
L 387.636935 278.247701 
L 393.709892 281.952605 
L 399.782849 231.333307 
L 405.855806 181.924105 
L 411.928763 209.260379 
L 418.001719 255.250064 
L 424.074676 261.271618 
L 430.147633 289.468932 
L 436.22059 178.736774 
L 442.293547 100.908105 
L 448.366504 203.575672 
L 454.439461 302.342003 
L 460.512417 297.044275 
L 466.585374 294.124609 
L 472.658331 303.148124 
L 478.731288 301.462639 
L 484.804245 303.141606 
L 490.877202 303.511816 
L 496.950158 300.728864 
L 503.023115 300.223914 
L 509.096072 298.486576 
L 515.169029 292.658591 
L 521.241986 282.961085 
L 527.314943 294.321023 
L 533.387899 298.176785 
L 539.460856 298.878948 
L 545.533813 290.232126 
L 551.60677 286.798156 
L 557.679727 300.777164 
L 563.752684 291.212688 
L 569.82564 290.360935 
L 575.898597 281.839273 
L 581.971554 284.198849 
L 588.044511 297.615074 
L 594.117468 297.261697 
L 600.190425 298.821025 
L 606.263382 290.910887 
L 612.336338 297.234422 
L 618.409295 297.966536 
L 624.482252 302.655958 
L 630.555209 302.753063 
L 636.628166 298.313977 
L 642.701123 302.236009 
L 648.774079 301.705603 
L 654.847036 287.428997 
L 660.919993 271.877114 
L 666.99295 270.525138 
L 673.065907 271.423565 
L 679.138864 272.34192 
" clip-path="url(#p3a51f331d5)" style="fill: none; stroke: #595959; stroke-opacity: 0.25; stroke-width: 0.8; stroke-linecap: square"/>
   </g>
   <g id="line2d_2">
    <path d="M 77.916136 239.580252 
L 83.989093 263.187599 
L 90.06205 301.833386 
L 96.135007 289.378286 
L 102.207964 288.464666 
L 108.280921 298.799441 
L 114.353877 266.354468 
L 120.426834 257.730096 
L 126.499791 258.108635 
L 132.572748 282.207535 
L 138.645705 299.584235 
L 144.718662 301.891555 
L 150.791618 292.873303 
L 156.864575 295.79855 
L 162.937532 300.846273 
L 169.010489 301.748061 
L 175.083446 301.076404 
L 181.156403 302.592878 
L 187.22936 302.434792 
L 193.302316 302.976924 
L 199.375273 303.006562 
L 205.44823 302.454831 
L 211.521187 302.398869 
L 217.594144 303.16569 
L 223.667101 300.936544 
L 229.740057 295.648116 
L 235.813014 267.388849 
L 241.885971 167.225581 
L 247.958928 22.293505 
L 252.520275 -1 
M 254.534318 -1 
L 260.104842 84.585366 
L 266.177798 207.032346 
L 272.250755 195.693354 
L 278.323712 246.047021 
L 284.396669 291.753282 
L 290.469626 276.256802 
L 296.542583 227.900276 
L 302.268482 -1 
M 314.163972 -1 
L 314.761453 19.824359 
L 320.83441 237.99895 
L 326.907367 282.391611 
L 332.980324 296.044467 
L 339.053281 302.110811 
L 345.126237 303.557431 
L 351.199194 302.482168 
L 357.272151 302.401521 
L 363.345108 301.489488 
L 369.418065 303.302188 
L 375.491022 302.833616 
L 381.563978 295.263078 
L 387.636935 273.060133 
L 393.709892 133.889115 
L 397.513223 -1 
M 407.521801 -1 
L 411.928763 144.580871 
L 418.001719 259.175916 
L 424.074676 302.016154 
L 430.147633 239.546185 
L 436.22059 27.484377 
L 437.222716 -1 
M 447.260491 -1 
L 448.366504 31.09477 
L 454.439461 242.055306 
L 460.512417 279.211361 
L 466.585374 297.973526 
L 472.658331 302.936881 
L 478.731288 302.831293 
L 484.804245 302.471822 
L 490.877202 302.520537 
L 496.950158 303.399577 
L 503.023115 303.192725 
L 509.096072 303.351559 
L 515.169029 275.209895 
L 521.241986 190.710578 
L 527.314943 79.130546 
L 533.387899 19.527782 
L 539.460856 65.874862 
L 545.533813 151.98069 
L 551.60677 253.797613 
L 557.679727 291.965371 
L 563.752684 276.540785 
L 569.82564 202.341271 
L 574.018662 -1 
M 584.391462 -1 
L 588.044511 178.151215 
L 594.117468 290.516474 
L 600.190425 292.57894 
L 606.263382 265.167484 
L 612.336338 300.18451 
L 618.409295 258.536284 
L 624.482252 292.411739 
L 630.555209 302.724904 
L 636.628166 302.08661 
L 642.701123 303.287152 
L 648.774079 302.937643 
L 654.847036 278.561436 
L 660.919993 100.357393 
L 663.749923 -1 
" clip-path="url(#p3a51f331d5)" style="fill: none; stroke: #595959; stroke-opacity: 0.25; stroke-width: 0.8; stroke-linecap: square"/>
   </g>
   <g id="line2d_3">
    <path d="M 77.916136 296.272317 
L 83.989093 299.723492 
L 90.06205 300.865752 
L 96.135007 300.824343 
L 102.207964 303.066176 
L 108.280921 303.177386 
L 114.353877 302.172343 
L 120.426834 301.423892 
L 126.499791 302.310776 
L 132.572748 302.446489 
L 138.645705 302.660961 
L 144.718662 303.323745 
L 150.791618 303.135819 
L 156.864575 302.04276 
L 162.937532 301.512726 
L 169.010489 302.292628 
L 175.083446 302.997495 
L 181.156403 299.848313 
L 187.22936 302.09346 
L 193.302316 301.169648 
L 199.375273 302.565859 
L 205.44823 301.481863 
L 211.521187 301.903745 
L 217.594144 302.432084 
L 223.667101 303.544648 
L 229.740057 302.47862 
L 235.813014 301.990296 
L 241.885971 291.727594 
L 247.958928 243.533183 
L 254.031885 127.04513 
L 260.104842 118.816888 
L 266.177798 240.552727 
L 272.250755 253.476153 
L 278.323712 236.774397 
L 284.396669 249.479753 
L 290.469626 246.149488 
L 296.542583 214.285475 
L 302.615539 193.901913 
L 308.688496 235.501388 
L 314.761453 285.266354 
L 320.83441 296.261829 
L 326.907367 302.419073 
L 332.980324 301.564359 
L 339.053281 301.821043 
L 345.126237 302.607773 
L 351.199194 303.0788 
L 357.272151 303.199909 
L 363.345108 301.382811 
L 369.418065 300.409491 
L 375.491022 302.816202 
L 381.563978 299.293649 
L 387.636935 291.179903 
L 393.709892 282.391136 
L 399.782849 246.787685 
L 405.855806 196.934695 
L 411.928763 210.704732 
L 418.001719 258.275823 
L 424.074676 265.494185 
L 430.147633 285.497934 
L 436.22059 159.400617 
L 442.293547 128.800366 
L 448.366504 249.757419 
L 454.439461 293.298873 
L 460.512417 298.593863 
L 466.585374 299.719935 
L 472.658331 299.307425 
L 478.731288 302.260778 
L 484.804245 303.004638 
L 490.877202 302.565794 
L 496.950158 300.879671 
L 503.023115 300.332097 
L 509.096072 300.239285 
L 515.169029 295.162939 
L 521.241986 295.635835 
L 527.314943 299.861177 
L 533.387899 300.248539 
L 539.460856 299.47647 
L 545.533813 298.225316 
L 551.60677 298.520602 
L 557.679727 301.082238 
L 563.752684 297.90717 
L 569.82564 298.308442 
L 575.898597 289.61707 
L 581.971554 285.671707 
L 588.044511 296.696774 
L 594.117468 298.322096 
L 600.190425 301.316212 
L 606.263382 301.075589 
L 612.336338 301.782977 
L 618.409295 300.506549 
L 624.482252 299.92072 
L 630.555209 301.889839 
L 636.628166 302.033458 
L 642.701123 301.04333 
L 648.774079 298.762911 
L 654.847036 290.895115 
L 660.919993 288.528566 
L 666.99295 284.29172 
L 673.065907 279.377268 
L 679.138864 278.975173 
" clip-path="url(#p3a51f331d5)" style="fill: none; stroke: #595959; stroke-opacity: 0.25; stroke-width: 0.8; stroke-linecap: square"/>
   </g>
   <g id="line2d_4">
    <path d="M 77.916136 286.170356 
L 83.989093 292.873519 
L 90.06205 300.377208 
L 96.135007 302.43665 
L 102.207964 299.968054 
L 108.280921 301.249732 
L 114.353877 287.542931 
L 120.426834 278.392718 
L 126.499791 272.886328 
L 132.572748 285.280272 
L 138.645705 297.192462 
L 144.718662 298.476595 
L 150.791618 300.334225 
L 156.864575 301.543495 
L 162.937532 303.026458 
L 169.010489 300.750006 
L 175.083446 302.535315 
L 181.156403 301.47154 
L 187.22936 301.125492 
L 193.302316 300.46921 
L 199.375273 302.67207 
L 205.44823 299.885657 
L 211.521187 301.146802 
L 217.594144 302.914101 
L 223.667101 301.02013 
L 229.740057 301.069042 
L 235.813014 299.078784 
L 241.885971 219.645227 
L 247.958928 67.329311 
L 254.031885 7.397558 
L 260.104842 83.679937 
L 266.177798 192.437357 
L 272.250755 250.553469 
L 278.323712 284.055781 
L 284.396669 278.139819 
L 290.469626 271.981668 
L 296.542583 229.110369 
L 302.615539 56.533875 
L 305.074255 -1 
M 311.852877 -1 
L 314.761453 76.736383 
L 320.83441 266.777534 
L 326.907367 297.939064 
L 332.980324 300.618763 
L 339.053281 302.602955 
L 345.126237 302.623973 
L 351.199194 303.230253 
L 357.272151 302.882306 
L 363.345108 302.964159 
L 369.418065 303.134188 
L 375.491022 302.551594 
L 381.563978 300.707457 
L 387.636935 297.553633 
L 393.709892 164.738294 
L 398.301228 -1 
M 407.445057 -1 
L 411.928763 145.063757 
L 418.001719 274.71957 
L 424.074676 287.702496 
L 430.147633 224.335076 
L 436.22059 52.440732 
L 438.058754 -1 
M 446.532304 -1 
L 448.366504 52.275602 
L 454.439461 276.405104 
L 460.512417 290.269828 
L 466.585374 301.638198 
L 472.658331 302.998263 
L 478.731288 300.699693 
L 484.804245 301.678077 
L 490.877202 302.998266 
L 496.950158 302.91251 
L 503.023115 303.367515 
L 509.096072 302.264164 
L 515.169029 292.476197 
L 521.241986 221.637679 
L 527.314943 90.897911 
L 532.512521 -1 
M 536.408052 -1 
L 539.460856 14.644814 
L 545.533813 212.958328 
L 551.60677 288.047195 
L 557.679727 298.044851 
L 563.752684 272.953195 
L 569.82564 192.707071 
L 573.947857 -1 
M 583.46814 -1 
L 588.044511 216.417271 
L 594.117468 293.594523 
L 600.190425 301.798236 
L 606.263382 285.506247 
L 612.336338 301.730607 
L 618.409295 284.919988 
L 624.482252 299.666324 
L 630.555209 301.594679 
L 636.628166 302.106987 
L 642.701123 302.503761 
L 648.774079 302.250197 
L 654.847036 292.745005 
L 660.919993 159.782076 
L 665.281074 -1 
M 675.581595 -1 
L 679.138864 66.365879 
" clip-path="url(#p3a51f331d5)" style="fill: none; stroke: #595959; stroke-opacity: 0.25; stroke-width: 0.8; stroke-linecap: square"/>
   </g>
   <g id="matplotlib.axis_1">
    <g id="xtick_1">
     <g id="line2d_5">
      <path d="M 77.916136 303.64 
L 77.916136 26.16 
" clip-path="url(#p3a51f331d5)" style="fill: none; stroke: #b0b0b0; stroke-opacity: 0.2; stroke-width: 0.8; stroke-linecap: square"/>
     </g>
     <g id="line2d_6">
      <defs>
       <path id="m2b1609c542" d="M 0 0 
L 0 3.5 
" style="stroke: #000000; stroke-width: 0.8"/>
      </defs>
      <g>
       <use xlink:href="#m2b1609c542" x="77.916136" y="303.64" style="stroke: #000000; stroke-width: 0.8"/>
      </g>
     </g>
     <g id="text_1">
      <!-- 0 -->
      <g transform="translate(74.734886 318.238437) scale(0.1 -0.1)">
       <defs>
        <path id="DejaVuSans-30" d="M 2034 4250 
Q 1547 4250 1301 3770 
Q 1056 3291 1056 2328 
Q 1056 1369 1301 889 
Q 1547 409 2034 409 
Q 2525 409 2770 889 
Q 3016 1369 3016 2328 
Q 3016 3291 2770 3770 
Q 2525 4250 2034 4250 
z
M 2034 4750 
Q 2819 4750 3233 4129 
Q 3647 3509 3647 2328 
Q 3647 1150 3233 529 
Q 2819 -91 2034 -91 
Q 1250 -91 836 529 
Q 422 1150 422 2328 
Q 422 3509 836 4129 
Q 1250 4750 2034 4750 
z
" transform="scale(0.015625)"/>
       </defs>
       <use xlink:href="#DejaVuSans-30"/>
      </g>
     </g>
    </g>
    <g id="xtick_2">
     <g id="line2d_7">
      <path d="M 169.010489 303.64 
L 169.010489 26.16 
" clip-path="url(#p3a51f331d5)" style="fill: none; stroke: #b0b0b0; stroke-opacity: 0.2; stroke-width: 0.8; stroke-linecap: square"/>
     </g>
     <g id="line2d_8">
      <g>
       <use xlink:href="#m2b1609c542" x="169.010489" y="303.64" style="stroke: #000000; stroke-width: 0.8"/>
      </g>
     </g>
     <g id="text_2">
      <!-- 2 -->
      <g transform="translate(165.829239 318.238437) scale(0.1 -0.1)">
       <defs>
        <path id="DejaVuSans-32" d="M 1228 531 
L 3431 531 
L 3431 0 
L 469 0 
L 469 531 
Q 828 903 1448 1529 
Q 2069 2156 2228 2338 
Q 2531 2678 2651 2914 
Q 2772 3150 2772 3378 
Q 2772 3750 2511 3984 
Q 2250 4219 1831 4219 
Q 1534 4219 1204 4116 
Q 875 4013 500 3803 
L 500 4441 
Q 881 4594 1212 4672 
Q 1544 4750 1819 4750 
Q 2544 4750 2975 4387 
Q 3406 4025 3406 3419 
Q 3406 3131 3298 2873 
Q 3191 2616 2906 2266 
Q 2828 2175 2409 1742 
Q 1991 1309 1228 531 
z
" transform="scale(0.015625)"/>
       </defs>
       <use xlink:href="#DejaVuSans-32"/>
      </g>
     </g>
    </g>
    <g id="xtick_3">
     <g id="line2d_9">
      <path d="M 260.104842 303.64 
L 260.104842 26.16 
" clip-path="url(#p3a51f331d5)" style="fill: none; stroke: #b0b0b0; stroke-opacity: 0.2; stroke-width: 0.8; stroke-linecap: square"/>
     </g>
     <g id="line2d_10">
      <g>
       <use xlink:href="#m2b1609c542" x="260.104842" y="303.64" style="stroke: #000000; stroke-width: 0.8"/>
      </g>
     </g>
     <g id="text_3">
      <!-- 4 -->
      <g transform="translate(256.923592 318.238437) scale(0.1 -0.1)">
       <defs>
        <path id="DejaVuSans-34" d="M 2419 4116 
L 825 1625 
L 2419 1625 
L 2419 4116 
z
M 2253 4666 
L 3047 4666 
L 3047 1625 
L 3713 1625 
L 3713 1100 
L 3047 1100 
L 3047 0 
L 2419 0 
L 2419 1100 
L 313 1100 
L 313 1709 
L 2253 4666 
z
" transform="scale(0.015625)"/>
       </defs>
       <use xlink:href="#DejaVuSans-34"/>
      </g>
     </g>
    </g>
    <g id="xtick_4">
     <g id="line2d_11">
      <path d="M 351.199194 303.64 
L 351.199194 26.16 
" clip-path="url(#p3a51f331d5)" style="fill: none; stroke: #b0b0b0; stroke-opacity: 0.2; stroke-width: 0.8; stroke-linecap: square"/>
     </g>
     <g id="line2d_12">
      <g>
       <use xlink:href="#m2b1609c542" x="351.199194" y="303.64" style="stroke: #000000; stroke-width: 0.8"/>
      </g>
     </g>
     <g id="text_4">
      <!-- 6 -->
      <g transform="translate(348.017944 318.238437) scale(0.1 -0.1)">
       <defs>
        <path id="DejaVuSans-36" d="M 2113 2584 
Q 1688 2584 1439 2293 
Q 1191 2003 1191 1497 
Q 1191 994 1439 701 
Q 1688 409 2113 409 
Q 2538 409 2786 701 
Q 3034 994 3034 1497 
Q 3034 2003 2786 2293 
Q 2538 2584 2113 2584 
z
M 3366 4563 
L 3366 3988 
Q 3128 4100 2886 4159 
Q 2644 4219 2406 4219 
Q 1781 4219 1451 3797 
Q 1122 3375 1075 2522 
Q 1259 2794 1537 2939 
Q 1816 3084 2150 3084 
Q 2853 3084 3261 2657 
Q 3669 2231 3669 1497 
Q 3669 778 3244 343 
Q 2819 -91 2113 -91 
Q 1303 -91 875 529 
Q 447 1150 447 2328 
Q 447 3434 972 4092 
Q 1497 4750 2381 4750 
Q 2619 4750 2861 4703 
Q 3103 4656 3366 4563 
z
" transform="scale(0.015625)"/>
       </defs>
       <use xlink:href="#DejaVuSans-36"/>
      </g>
     </g>
    </g>
    <g id="xtick_5">
     <g id="line2d_13">
      <path d="M 442.293547 303.64 
L 442.293547 26.16 
" clip-path="url(#p3a51f331d5)" style="fill: none; stroke: #b0b0b0; stroke-opacity: 0.2; stroke-width: 0.8; stroke-linecap: square"/>
     </g>
     <g id="line2d_14">
      <g>
       <use xlink:href="#m2b1609c542" x="442.293547" y="303.64" style="stroke: #000000; stroke-width: 0.8"/>
      </g>
     </g>
     <g id="text_5">
      <!-- 8 -->
      <g transform="translate(439.112297 318.238437) scale(0.1 -0.1)">
       <defs>
        <path id="DejaVuSans-38" d="M 2034 2216 
Q 1584 2216 1326 1975 
Q 1069 1734 1069 1313 
Q 1069 891 1326 650 
Q 1584 409 2034 409 
Q 2484 409 2743 651 
Q 3003 894 3003 1313 
Q 3003 1734 2745 1975 
Q 2488 2216 2034 2216 
z
M 1403 2484 
Q 997 2584 770 2862 
Q 544 3141 544 3541 
Q 544 4100 942 4425 
Q 1341 4750 2034 4750 
Q 2731 4750 3128 4425 
Q 3525 4100 3525 3541 
Q 3525 3141 3298 2862 
Q 3072 2584 2669 2484 
Q 3125 2378 3379 2068 
Q 3634 1759 3634 1313 
Q 3634 634 3220 271 
Q 2806 -91 2034 -91 
Q 1263 -91 848 271 
Q 434 634 434 1313 
Q 434 1759 690 2068 
Q 947 2378 1403 2484 
z
M 1172 3481 
Q 1172 3119 1398 2916 
Q 1625 2713 2034 2713 
Q 2441 2713 2670 2916 
Q 2900 3119 2900 3481 
Q 2900 3844 2670 4047 
Q 2441 4250 2034 4250 
Q 1625 4250 1398 4047 
Q 1172 3844 1172 3481 
z
" transform="scale(0.015625)"/>
       </defs>
       <use xlink:href="#DejaVuSans-38"/>
      </g>
     </g>
    </g>
    <g id="xtick_6">
     <g id="line2d_15">
      <path d="M 533.387899 303.64 
L 533.387899 26.16 
" clip-path="url(#p3a51f331d5)" style="fill: none; stroke: #b0b0b0; stroke-opacity: 0.2; stroke-width: 0.8; stroke-linecap: square"/>
     </g>
     <g id="line2d_16">
      <g>
       <use xlink:href="#m2b1609c542" x="533.387899" y="303.64" style="stroke: #000000; stroke-width: 0.8"/>
      </g>
     </g>
     <g id="text_6">
      <!-- 10 -->
      <g transform="translate(527.025399 318.238437) scale(0.1 -0.1)">
       <defs>
        <path id="DejaVuSans-31" d="M 794 531 
L 1825 531 
L 1825 4091 
L 703 3866 
L 703 4441 
L 1819 4666 
L 2450 4666 
L 2450 531 
L 3481 531 
L 3481 0 
L 794 0 
L 794 531 
z
" transform="scale(0.015625)"/>
       </defs>
       <use xlink:href="#DejaVuSans-31"/>
       <use xlink:href="#DejaVuSans-30" x="63.623047"/>
      </g>
     </g>
    </g>
    <g id="xtick_7">
     <g id="line2d_17">
      <path d="M 624.482252 303.64 
L 624.482252 26.16 
" clip-path="url(#p3a51f331d5)" style="fill: none; stroke: #b0b0b0; stroke-opacity: 0.2; stroke-width: 0.8; stroke-linecap: square"/>
     </g>
     <g id="line2d_18">
      <g>
       <use xlink:href="#m2b1609c542" x="624.482252" y="303.64" style="stroke: #000000; stroke-width: 0.8"/>
      </g>
     </g>
     <g id="text_7">
      <!-- 12 -->
      <g transform="translate(618.119752 318.238437) scale(0.1 -0.1)">
       <use xlink:href="#DejaVuSans-31"/>
       <use xlink:href="#DejaVuSans-32" x="63.623047"/>
      </g>
     </g>
    </g>
    <g id="text_8">
     <!-- Time (s) -->
     <g transform="translate(358.198594 331.916562) scale(0.1 -0.1)">
      <defs>
       <path id="DejaVuSans-54" d="M -19 4666 
L 3928 4666 
L 3928 4134 
L 2272 4134 
L 2272 0 
L 1638 0 
L 1638 4134 
L -19 4134 
L -19 4666 
z
" transform="scale(0.015625)"/>
       <path id="DejaVuSans-69" d="M 603 3500 
L 1178 3500 
L 1178 0 
L 603 0 
L 603 3500 
z
M 603 4863 
L 1178 4863 
L 1178 4134 
L 603 4134 
L 603 4863 
z
" transform="scale(0.015625)"/>
       <path id="DejaVuSans-6d" d="M 3328 2828 
Q 3544 3216 3844 3400 
Q 4144 3584 4550 3584 
Q 5097 3584 5394 3201 
Q 5691 2819 5691 2113 
L 5691 0 
L 5113 0 
L 5113 2094 
Q 5113 2597 4934 2840 
Q 4756 3084 4391 3084 
Q 3944 3084 3684 2787 
Q 3425 2491 3425 1978 
L 3425 0 
L 2847 0 
L 2847 2094 
Q 2847 2600 2669 2842 
Q 2491 3084 2119 3084 
Q 1678 3084 1418 2786 
Q 1159 2488 1159 1978 
L 1159 0 
L 581 0 
L 581 3500 
L 1159 3500 
L 1159 2956 
Q 1356 3278 1631 3431 
Q 1906 3584 2284 3584 
Q 2666 3584 2933 3390 
Q 3200 3197 3328 2828 
z
" transform="scale(0.015625)"/>
       <path id="DejaVuSans-65" d="M 3597 1894 
L 3597 1613 
L 953 1613 
Q 991 1019 1311 708 
Q 1631 397 2203 397 
Q 2534 397 2845 478 
Q 3156 559 3463 722 
L 3463 178 
Q 3153 47 2828 -22 
Q 2503 -91 2169 -91 
Q 1331 -91 842 396 
Q 353 884 353 1716 
Q 353 2575 817 3079 
Q 1281 3584 2069 3584 
Q 2775 3584 3186 3129 
Q 3597 2675 3597 1894 
z
M 3022 2063 
Q 3016 2534 2758 2815 
Q 2500 3097 2075 3097 
Q 1594 3097 1305 2825 
Q 1016 2553 972 2059 
L 3022 2063 
z
" transform="scale(0.015625)"/>
       <path id="DejaVuSans-20" transform="scale(0.015625)"/>
       <path id="DejaVuSans-28" d="M 1984 4856 
Q 1566 4138 1362 3434 
Q 1159 2731 1159 2009 
Q 1159 1288 1364 580 
Q 1569 -128 1984 -844 
L 1484 -844 
Q 1016 -109 783 600 
Q 550 1309 550 2009 
Q 550 2706 781 3412 
Q 1013 4119 1484 4856 
L 1984 4856 
z
" transform="scale(0.015625)"/>
       <path id="DejaVuSans-73" d="M 2834 3397 
L 2834 2853 
Q 2591 2978 2328 3040 
Q 2066 3103 1784 3103 
Q 1356 3103 1142 2972 
Q 928 2841 928 2578 
Q 928 2378 1081 2264 
Q 1234 2150 1697 2047 
L 1894 2003 
Q 2506 1872 2764 1633 
Q 3022 1394 3022 966 
Q 3022 478 2636 193 
Q 2250 -91 1575 -91 
Q 1294 -91 989 -36 
Q 684 19 347 128 
L 347 722 
Q 666 556 975 473 
Q 1284 391 1588 391 
Q 1994 391 2212 530 
Q 2431 669 2431 922 
Q 2431 1156 2273 1281 
Q 2116 1406 1581 1522 
L 1381 1569 
Q 847 1681 609 1914 
Q 372 2147 372 2553 
Q 372 3047 722 3315 
Q 1072 3584 1716 3584 
Q 2034 3584 2315 3537 
Q 2597 3491 2834 3397 
z
" transform="scale(0.015625)"/>
       <path id="DejaVuSans-29" d="M 513 4856 
L 1013 4856 
Q 1481 4119 1714 3412 
Q 1947 2706 1947 2009 
Q 1947 1309 1714 600 
Q 1481 -109 1013 -844 
L 513 -844 
Q 928 -128 1133 580 
Q 1338 1288 1338 2009 
Q 1338 2731 1133 3434 
Q 928 4138 513 4856 
z
" transform="scale(0.015625)"/>
      </defs>
      <use xlink:href="#DejaVuSans-54"/>
      <use xlink:href="#DejaVuSans-69" x="57.958984"/>
      <use xlink:href="#DejaVuSans-6d" x="85.742188"/>
      <use xlink:href="#DejaVuSans-65" x="183.154297"/>
      <use xlink:href="#DejaVuSans-20" x="244.677734"/>
      <use xlink:href="#DejaVuSans-28" x="276.464844"/>
      <use xlink:href="#DejaVuSans-73" x="315.478516"/>
      <use xlink:href="#DejaVuSans-29" x="367.578125"/>
     </g>
    </g>
   </g>
   <g id="matplotlib.axis_2">
    <g id="ytick_1">
     <g id="line2d_19">
      <path d="M 47.855 303.64 
L 709.2 303.64 
" clip-path="url(#p3a51f331d5)" style="fill: none; stroke: #b0b0b0; stroke-opacity: 0.2; stroke-width: 0.8; stroke-linecap: square"/>
     </g>
     <g id="line2d_20">
      <defs>
       <path id="m71c04b0e8c" d="M 0 0 
L -3.5 0 
" style="stroke: #000000; stroke-width: 0.8"/>
      </defs>
      <g>
       <use xlink:href="#m71c04b0e8c" x="47.855" y="303.64" style="stroke: #000000; stroke-width: 0.8"/>
      </g>
     </g>
     <g id="text_9">
      <!-- 0.0 -->
      <g transform="translate(24.951875 307.439219) scale(0.1 -0.1)">
       <defs>
        <path id="DejaVuSans-2e" d="M 684 794 
L 1344 794 
L 1344 0 
L 684 0 
L 684 794 
z
" transform="scale(0.015625)"/>
       </defs>
       <use xlink:href="#DejaVuSans-30"/>
       <use xlink:href="#DejaVuSans-2e" x="63.623047"/>
       <use xlink:href="#DejaVuSans-30" x="95.410156"/>
      </g>
     </g>
    </g>
    <g id="ytick_2">
     <g id="line2d_21">
      <path d="M 47.855 243.848417 
L 709.2 243.848417 
" clip-path="url(#p3a51f331d5)" style="fill: none; stroke: #b0b0b0; stroke-opacity: 0.2; stroke-width: 0.8; stroke-linecap: square"/>
     </g>
     <g id="line2d_22">
      <g>
       <use xlink:href="#m71c04b0e8c" x="47.855" y="243.848417" style="stroke: #000000; stroke-width: 0.8"/>
      </g>
     </g>
     <g id="text_10">
      <!-- 0.2 -->
      <g transform="translate(24.951875 247.647636) scale(0.1 -0.1)">
       <use xlink:href="#DejaVuSans-30"/>
       <use xlink:href="#DejaVuSans-2e" x="63.623047"/>
       <use xlink:href="#DejaVuSans-32" x="95.410156"/>
      </g>
     </g>
    </g>
    <g id="ytick_3">
     <g id="line2d_23">
      <path d="M 47.855 184.056834 
L 709.2 184.056834 
" clip-path="url(#p3a51f331d5)" style="fill: none; stroke: #b0b0b0; stroke-opacity: 0.2; stroke-width: 0.8; stroke-linecap: square"/>
     </g>
     <g id="line2d_24">
      <g>
       <use xlink:href="#m71c04b0e8c" x="47.855" y="184.056834" style="stroke: #000000; stroke-width: 0.8"/>
      </g>
     </g>
     <g id="text_11">
      <!-- 0.4 -->
      <g transform="translate(24.951875 187.856053) scale(0.1 -0.1)">
       <use xlink:href="#DejaVuSans-30"/>
       <use xlink:href="#DejaVuSans-2e" x="63.623047"/>
       <use xlink:href="#DejaVuSans-34" x="95.410156"/>
      </g>
     </g>
    </g>
    <g id="ytick_4">
     <g id="line2d_25">
      <path d="M 47.855 124.265252 
L 709.2 124.265252 
" clip-path="url(#p3a51f331d5)" style="fill: none; stroke: #b0b0b0; stroke-opacity: 0.2; stroke-width: 0.8; stroke-linecap: square"/>
     </g>
     <g id="line2d_26">
      <g>
       <use xlink:href="#m71c04b0e8c" x="47.855" y="124.265252" style="stroke: #000000; stroke-width: 0.8"/>
      </g>
     </g>
     <g id="text_12">
      <!-- 0.6 -->
      <g transform="translate(24.951875 128.06447) scale(0.1 -0.1)">
       <use xlink:href="#DejaVuSans-30"/>
       <use xlink:href="#DejaVuSans-2e" x="63.623047"/>
       <use xlink:href="#DejaVuSans-36" x="95.410156"/>
      </g>
     </g>
    </g>
    <g id="ytick_5">
     <g id="line2d_27">
      <path d="M 47.855 64.473669 
L 709.2 64.473669 
" clip-path="url(#p3a51f331d5)" style="fill: none; stroke: #b0b0b0; stroke-opacity: 0.2; stroke-width: 0.8; stroke-linecap: square"/>
     </g>
     <g id="line2d_28">
      <g>
       <use xlink:href="#m71c04b0e8c" x="47.855" y="64.473669" style="stroke: #000000; stroke-width: 0.8"/>
      </g>
     </g>
     <g id="text_13">
      <!-- 0.8 -->
      <g transform="translate(24.951875 68.272887) scale(0.1 -0.1)">
       <use xlink:href="#DejaVuSans-30"/>
       <use xlink:href="#DejaVuSans-2e" x="63.623047"/>
       <use xlink:href="#DejaVuSans-38" x="95.410156"/>
      </g>
     </g>
    </g>
    <g id="text_14">
     <!-- Speed (norm units/s) -->
     <g transform="translate(18.872188 217.302344) rotate(-90) scale(0.1 -0.1)">
      <defs>
       <path id="DejaVuSans-53" d="M 3425 4513 
L 3425 3897 
Q 3066 4069 2747 4153 
Q 2428 4238 2131 4238 
Q 1616 4238 1336 4038 
Q 1056 3838 1056 3469 
Q 1056 3159 1242 3001 
Q 1428 2844 1947 2747 
L 2328 2669 
Q 3034 2534 3370 2195 
Q 3706 1856 3706 1288 
Q 3706 609 3251 259 
Q 2797 -91 1919 -91 
Q 1588 -91 1214 -16 
Q 841 59 441 206 
L 441 856 
Q 825 641 1194 531 
Q 1563 422 1919 422 
Q 2459 422 2753 634 
Q 3047 847 3047 1241 
Q 3047 1584 2836 1778 
Q 2625 1972 2144 2069 
L 1759 2144 
Q 1053 2284 737 2584 
Q 422 2884 422 3419 
Q 422 4038 858 4394 
Q 1294 4750 2059 4750 
Q 2388 4750 2728 4690 
Q 3069 4631 3425 4513 
z
" transform="scale(0.015625)"/>
       <path id="DejaVuSans-70" d="M 1159 525 
L 1159 -1331 
L 581 -1331 
L 581 3500 
L 1159 3500 
L 1159 2969 
Q 1341 3281 1617 3432 
Q 1894 3584 2278 3584 
Q 2916 3584 3314 3078 
Q 3713 2572 3713 1747 
Q 3713 922 3314 415 
Q 2916 -91 2278 -91 
Q 1894 -91 1617 61 
Q 1341 213 1159 525 
z
M 3116 1747 
Q 3116 2381 2855 2742 
Q 2594 3103 2138 3103 
Q 1681 3103 1420 2742 
Q 1159 2381 1159 1747 
Q 1159 1113 1420 752 
Q 1681 391 2138 391 
Q 2594 391 2855 752 
Q 3116 1113 3116 1747 
z
" transform="scale(0.015625)"/>
       <path id="DejaVuSans-64" d="M 2906 2969 
L 2906 4863 
L 3481 4863 
L 3481 0 
L 2906 0 
L 2906 525 
Q 2725 213 2448 61 
Q 2172 -91 1784 -91 
Q 1150 -91 751 415 
Q 353 922 353 1747 
Q 353 2572 751 3078 
Q 1150 3584 1784 3584 
Q 2172 3584 2448 3432 
Q 2725 3281 2906 2969 
z
M 947 1747 
Q 947 1113 1208 752 
Q 1469 391 1925 391 
Q 2381 391 2643 752 
Q 2906 1113 2906 1747 
Q 2906 2381 2643 2742 
Q 2381 3103 1925 3103 
Q 1469 3103 1208 2742 
Q 947 2381 947 1747 
z
" transform="scale(0.015625)"/>
       <path id="DejaVuSans-6e" d="M 3513 2113 
L 3513 0 
L 2938 0 
L 2938 2094 
Q 2938 2591 2744 2837 
Q 2550 3084 2163 3084 
Q 1697 3084 1428 2787 
Q 1159 2491 1159 1978 
L 1159 0 
L 581 0 
L 581 3500 
L 1159 3500 
L 1159 2956 
Q 1366 3272 1645 3428 
Q 1925 3584 2291 3584 
Q 2894 3584 3203 3211 
Q 3513 2838 3513 2113 
z
" transform="scale(0.015625)"/>
       <path id="DejaVuSans-6f" d="M 1959 3097 
Q 1497 3097 1228 2736 
Q 959 2375 959 1747 
Q 959 1119 1226 758 
Q 1494 397 1959 397 
Q 2419 397 2687 759 
Q 2956 1122 2956 1747 
Q 2956 2369 2687 2733 
Q 2419 3097 1959 3097 
z
M 1959 3584 
Q 2709 3584 3137 3096 
Q 3566 2609 3566 1747 
Q 3566 888 3137 398 
Q 2709 -91 1959 -91 
Q 1206 -91 779 398 
Q 353 888 353 1747 
Q 353 2609 779 3096 
Q 1206 3584 1959 3584 
z
" transform="scale(0.015625)"/>
       <path id="DejaVuSans-72" d="M 2631 2963 
Q 2534 3019 2420 3045 
Q 2306 3072 2169 3072 
Q 1681 3072 1420 2755 
Q 1159 2438 1159 1844 
L 1159 0 
L 581 0 
L 581 3500 
L 1159 3500 
L 1159 2956 
Q 1341 3275 1631 3429 
Q 1922 3584 2338 3584 
Q 2397 3584 2469 3576 
Q 2541 3569 2628 3553 
L 2631 2963 
z
" transform="scale(0.015625)"/>
       <path id="DejaVuSans-75" d="M 544 1381 
L 544 3500 
L 1119 3500 
L 1119 1403 
Q 1119 906 1312 657 
Q 1506 409 1894 409 
Q 2359 409 2629 706 
Q 2900 1003 2900 1516 
L 2900 3500 
L 3475 3500 
L 3475 0 
L 2900 0 
L 2900 538 
Q 2691 219 2414 64 
Q 2138 -91 1772 -91 
Q 1169 -91 856 284 
Q 544 659 544 1381 
z
M 1991 3584 
L 1991 3584 
z
" transform="scale(0.015625)"/>
       <path id="DejaVuSans-74" d="M 1172 4494 
L 1172 3500 
L 2356 3500 
L 2356 3053 
L 1172 3053 
L 1172 1153 
Q 1172 725 1289 603 
Q 1406 481 1766 481 
L 2356 481 
L 2356 0 
L 1766 0 
Q 1100 0 847 248 
Q 594 497 594 1153 
L 594 3053 
L 172 3053 
L 172 3500 
L 594 3500 
L 594 4494 
L 1172 4494 
z
" transform="scale(0.015625)"/>
       <path id="DejaVuSans-2f" d="M 1625 4666 
L 2156 4666 
L 531 -594 
L 0 -594 
L 1625 4666 
z
" transform="scale(0.015625)"/>
      </defs>
      <use xlink:href="#DejaVuSans-53"/>
      <use xlink:href="#DejaVuSans-70" x="63.476562"/>
      <use xlink:href="#DejaVuSans-65" x="126.953125"/>
      <use xlink:href="#DejaVuSans-65" x="188.476562"/>
      <use xlink:href="#DejaVuSans-64" x="250"/>
      <use xlink:href="#DejaVuSans-20" x="313.476562"/>
      <use xlink:href="#DejaVuSans-28" x="345.263672"/>
      <use xlink:href="#DejaVuSans-6e" x="384.277344"/>
      <use xlink:href="#DejaVuSans-6f" x="447.65625"/>
      <use xlink:href="#DejaVuSans-72" x="508.837891"/>
      <use xlink:href="#DejaVuSans-6d" x="548.201172"/>
      <use xlink:href="#DejaVuSans-20" x="645.613281"/>
      <use xlink:href="#DejaVuSans-75" x="677.400391"/>
      <use xlink:href="#DejaVuSans-6e" x="740.779297"/>
      <use xlink:href="#DejaVuSans-69" x="804.158203"/>
      <use xlink:href="#DejaVuSans-74" x="831.941406"/>
      <use xlink:href="#DejaVuSans-73" x="871.150391"/>
      <use xlink:href="#DejaVuSans-2f" x="923.25"/>
      <use xlink:href="#DejaVuSans-73" x="956.941406"/>
      <use xlink:href="#DejaVuSans-29" x="1009.041016"/>
     </g>
    </g>
   </g>
   <g id="patch_3">
    <path d="M 47.855 303.64 
L 47.855 26.16 
" style="fill: none; stroke: #000000; stroke-width: 0.8; stroke-linejoin: miter; stroke-linecap: square"/>
   </g>
   <g id="patch_4">
    <path d="M 709.2 303.64 
L 709.2 26.16 
" style="fill: none; stroke: #000000; stroke-width: 0.8; stroke-linejoin: miter; stroke-linecap: square"/>
   </g>
   <g id="patch_5">
    <path d="M 47.855 303.64 
L 709.2 303.64 
" style="fill: none; stroke: #000000; stroke-width: 0.8; stroke-linejoin: miter; stroke-linecap: square"/>
   </g>
   <g id="patch_6">
    <path d="M 47.855 26.16 
L 709.2 26.16 
" style="fill: none; stroke: #000000; stroke-width: 0.8; stroke-linejoin: miter; stroke-linecap: square"/>
   </g>
   <g id="line2d_29">
    <path d="M 77.916136 291.463685 
L 83.989093 292.649791 
L 90.06205 295.158309 
L 96.135007 297.201555 
L 102.207964 298.274016 
L 108.280921 299.110902 
L 114.353877 300.292108 
L 120.426834 301.469873 
L 126.499791 301.361741 
L 132.572748 300.773664 
L 138.645705 301.354695 
L 144.718662 301.129544 
L 150.791618 298.777046 
L 156.864575 297.464771 
L 162.937532 297.990961 
L 169.010489 299.663746 
L 175.083446 301.477831 
L 181.156403 302.801983 
L 187.22936 303.240701 
L 193.302316 303.272556 
L 199.375273 303.5026 
L 205.44823 302.394866 
L 211.521187 300.825298 
L 217.594144 299.777797 
L 223.667101 300.527594 
L 229.740057 292.835064 
L 235.813014 270.922587 
L 241.885971 236.276511 
L 247.958928 197.853122 
L 254.031885 175.005727 
L 260.104842 184.833871 
L 266.177798 224.150174 
L 272.250755 265.466461 
L 278.323712 264.659933 
L 284.396669 242.890572 
L 290.469626 222.809412 
L 296.542583 207.567208 
L 302.615539 204.510607 
L 308.688496 218.362677 
L 314.761453 244.567004 
L 320.83441 272.110298 
L 326.907367 291.945103 
L 332.980324 300.612223 
L 339.053281 300.376428 
L 345.126237 301.132385 
L 351.199194 302.648186 
L 357.272151 303.255463 
L 363.345108 302.330191 
L 369.418065 301.879541 
L 375.491022 298.806357 
L 381.563978 290.416489 
L 387.636935 275.691102 
L 393.709892 254.17723 
L 399.782849 230.22729 
L 405.855806 214.588758 
L 411.928763 217.742861 
L 418.001719 242.987647 
L 424.074676 287.209093 
L 430.147633 263.336329 
L 436.22059 213.784646 
L 442.293547 192.992515 
L 448.366504 208.812307 
L 454.439461 245.122676 
L 460.512417 278.633227 
L 466.585374 298.161551 
L 472.658331 301.156984 
L 478.731288 300.283324 
L 484.804245 301.406351 
L 490.877202 302.385846 
L 496.950158 302.482256 
L 503.023115 301.435096 
L 509.096072 298.96818 
L 515.169029 295.643065 
L 521.241986 293.201833 
L 527.314943 292.65453 
L 533.387899 293.027444 
L 539.460856 293.094515 
L 545.533813 293.538838 
L 551.60677 296.479687 
L 557.679727 302.735305 
L 563.752684 296.558416 
L 569.82564 290.218497 
L 575.898597 287.768493 
L 581.971554 289.640158 
L 588.044511 293.887828 
L 594.117468 297.408924 
L 600.190425 299.12054 
L 606.263382 300.013179 
L 612.336338 301.080249 
L 618.409295 302.543534 
L 624.482252 303.378795 
L 630.555209 303.025605 
L 636.628166 302.491214 
L 642.701123 300.416148 
L 648.774079 295.418171 
L 654.847036 287.644843 
L 660.919993 279.385585 
L 666.99295 273.244479 
L 673.065907 270.049212 
L 679.138864 269.146758 
" clip-path="url(#p3a51f331d5)" style="fill: none; stroke: #000000; stroke-width: 1.8; stroke-linecap: square"/>
   </g>
   <g id="line2d_30">
    <path d="M 77.916136 267.036246 
L 83.989093 272.509607 
L 90.06205 284.908611 
L 96.135007 297.005975 
L 102.207964 298.563264 
L 108.280921 288.033005 
L 114.353877 277.184404 
L 120.426834 270.757471 
L 126.499791 272.319686 
L 132.572748 280.757849 
L 138.645705 290.685451 
L 144.718662 296.976508 
L 150.791618 298.929706 
L 156.864575 299.557868 
L 162.937532 300.67415 
L 169.010489 302.175561 
L 175.083446 303.388839 
L 181.156403 303.302964 
L 187.22936 303.252622 
L 193.302316 303.306017 
L 199.375273 301.964867 
L 205.44823 299.167464 
L 211.521187 295.877859 
L 217.594144 295.750729 
L 223.667101 301.058063 
L 229.740057 270.995828 
L 235.813014 216.101845 
L 241.885971 145.967151 
L 247.958928 86.864765 
L 254.031885 65.962073 
L 260.104842 88.774929 
L 266.177798 136.721496 
L 272.250755 188.472216 
L 278.323712 237.989868 
L 284.396669 294.238784 
L 290.469626 234.609484 
L 296.542583 134.049011 
L 302.615539 41.096965 
L 308.688496 4.87265 
L 314.761453 47.428807 
L 320.83441 139.021095 
L 326.907367 228.573029 
L 332.980324 285.984846 
L 339.053281 295.303806 
L 345.126237 291.407193 
L 351.199194 296.567279 
L 357.272151 301.831345 
L 363.345108 294.746168 
L 369.418065 292.564134 
L 375.491022 302.353626 
L 381.563978 263.330367 
L 387.636935 191.98548 
L 393.709892 104.033443 
L 399.782849 39.430156 
L 405.855806 36.589008 
L 411.928763 100.632338 
L 418.001719 206.639985 
L 424.074676 278.340682 
L 430.147633 156.642274 
L 436.22059 60.355778 
L 442.293547 24.499927 
L 448.366504 63.209022 
L 454.439461 147.993141 
L 460.512417 231.885823 
L 466.585374 286.642298 
L 472.658331 296.808452 
L 478.731288 293.305332 
L 484.804245 299.245248 
L 490.877202 300.074871 
L 496.950158 295.66267 
L 503.023115 301.175603 
L 509.096072 281.908648 
L 515.169029 234.512694 
L 521.241986 170.019643 
L 527.314943 109.621815 
L 533.387899 79.168596 
L 539.460856 91.616041 
L 545.533813 140.008837 
L 551.60677 208.428121 
L 557.679727 280.169244 
L 563.752684 216.936766 
L 569.82564 117.883315 
L 575.898597 47.472213 
L 581.971554 46.157018 
L 588.044511 113.896983 
L 594.117468 206.328149 
L 600.190425 276.868371 
L 606.263382 293.470252 
L 612.336338 292.727042 
L 618.409295 299.350609 
L 624.482252 291.373353 
L 630.555209 286.005827 
L 636.628166 285.961845 
L 642.701123 297.598237 
L 648.774079 269.641738 
L 654.847036 194.595849 
L 660.919993 92.817023 
L 666.79713 -1 
" clip-path="url(#p3a51f331d5)" style="fill: none; stroke: #000000; stroke-width: 1.8; stroke-linecap: square"/>
   </g>
   <g id="line2d_31">
    <path d="M 77.916136 299.208258 
L 83.989093 299.574364 
L 90.06205 300.468799 
L 96.135007 301.543547 
L 102.207964 302.514538 
L 108.280921 302.948187 
L 114.353877 302.793218 
L 120.426834 302.748638 
L 126.499791 302.811771 
L 132.572748 302.852203 
L 138.645705 303.044923 
L 144.718662 303.307563 
L 150.791618 303.077128 
L 156.864575 302.847093 
L 162.937532 302.889967 
L 169.010489 302.817422 
L 175.083446 302.432502 
L 181.156403 302.363507 
L 187.22936 302.733013 
L 193.302316 302.541635 
L 199.375273 302.146468 
L 205.44823 302.674477 
L 211.521187 302.596008 
L 217.594144 299.944856 
L 223.667101 298.675244 
L 229.740057 301.907369 
L 235.813014 286.687214 
L 241.885971 255.077594 
L 247.958928 215.698706 
L 254.031885 188.539646 
L 260.104842 193.565427 
L 266.177798 230.246266 
L 272.250755 270.324658 
L 278.323712 263.683451 
L 284.396669 241.530221 
L 290.469626 225.93065 
L 296.542583 218.342741 
L 302.615539 223.196193 
L 308.688496 241.372075 
L 314.761453 265.878767 
L 320.83441 286.985408 
L 326.907367 299.458528 
L 332.980324 301.959506 
L 339.053281 301.580619 
L 345.126237 302.478664 
L 351.199194 303.511462 
L 357.272151 302.201716 
L 363.345108 300.794896 
L 369.418065 300.018368 
L 375.491022 300.692158 
L 381.563978 297.506091 
L 387.636935 284.803721 
L 393.709892 264.153593 
L 399.782849 240.371256 
L 405.855806 224.052233 
L 411.928763 226.149641 
L 418.001719 251.017764 
L 424.074676 295.170226 
L 430.147633 258.807218 
L 436.22059 217.125915 
L 442.293547 206.577692 
L 448.366504 228.45614 
L 454.439461 263.309045 
L 460.512417 290.596422 
L 466.585374 302.840563 
L 472.658331 300.268332 
L 478.731288 301.134167 
L 484.804245 302.406461 
L 490.877202 302.678191 
L 496.950158 302.046508 
L 503.023115 300.758755 
L 509.096072 299.154982 
L 515.169029 297.96555 
L 521.241986 297.777996 
L 527.314943 298.322788 
L 533.387899 298.774488 
L 539.460856 299.001639 
L 545.533813 299.717761 
L 551.60677 301.595798 
L 557.679727 302.424737 
L 563.752684 298.579848 
L 569.82564 294.917126 
L 575.898597 292.763048 
L 581.971554 293.382423 
L 588.044511 296.634224 
L 594.117468 300.496394 
L 600.190425 302.894628 
L 606.263382 303.445114 
L 612.336338 302.56085 
L 618.409295 301.853838 
L 624.482252 301.800172 
L 630.555209 302.405061 
L 636.628166 303.030371 
L 642.701123 301.029772 
L 648.774079 297.479454 
L 654.847036 293.019073 
L 660.919993 288.390388 
L 666.99295 284.189391 
L 673.065907 281.08052 
L 679.138864 279.902666 
" clip-path="url(#p3a51f331d5)" style="fill: none; stroke: #ff0000; stroke-width: 1.8; stroke-linecap: square"/>
   </g>
   <g id="line2d_32">
    <path d="M 77.916136 292.980861 
L 83.989093 294.248825 
L 90.06205 297.180789 
L 96.135007 300.432898 
L 102.207964 301.70784 
L 108.280921 296.003764 
L 114.353877 288.740861 
L 120.426834 283.176521 
L 126.499791 282.138882 
L 132.572748 285.884828 
L 138.645705 291.86639 
L 144.718662 297.038494 
L 150.791618 300.04196 
L 156.864575 301.300814 
L 162.937532 301.863739 
L 169.010489 302.336342 
L 175.083446 302.68982 
L 181.156403 302.539664 
L 187.22936 302.43371 
L 193.302316 302.706353 
L 199.375273 302.624712 
L 205.44823 301.091359 
L 211.521187 297.626766 
L 217.594144 294.356553 
L 223.667101 297.383064 
L 229.740057 289.611781 
L 235.813014 245.261493 
L 241.885971 179.970413 
L 247.958928 117.027278 
L 254.031885 87.094853 
L 260.104842 104.18348 
L 266.177798 155.588298 
L 272.250755 216.591536 
L 278.323712 270.619494 
L 284.396669 277.331171 
L 290.469626 220.587728 
L 296.542583 150.480009 
L 302.615539 88.035872 
L 308.688496 68.163105 
L 314.761453 107.209524 
L 320.83441 182.089789 
L 326.907367 252.676789 
L 332.980324 295.854859 
L 339.053281 294.256442 
L 345.126237 293.177754 
L 351.199194 298.503226 
L 357.272151 301.147275 
L 363.345108 294.221977 
L 369.418065 290.801725 
L 375.491022 299.014069 
L 381.563978 275.245329 
L 387.636935 210.455441 
L 393.709892 125.629179 
L 399.782849 59.149933 
L 405.855806 51.628286 
L 411.928763 111.819174 
L 418.001719 215.313919 
L 424.074676 271.893338 
L 430.147633 158.617648 
L 436.22059 72.088191 
L 442.293547 44.390386 
L 448.366504 87.179215 
L 454.439461 171.121046 
L 460.512417 249.818127 
L 466.585374 297.025287 
L 472.658331 292.111453 
L 478.731288 292.387123 
L 484.804245 299.655072 
L 490.877202 299.380501 
L 496.950158 293.981121 
L 503.023115 296.542669 
L 509.096072 289.923025 
L 515.169029 245.511537 
L 521.241986 178.221673 
L 527.314943 109.294499 
L 533.387899 71.763805 
L 539.460856 87.369064 
L 545.533813 148.734588 
L 551.60677 230.403028 
L 557.679727 290.112143 
L 563.752684 200.589763 
L 569.82564 112.706537 
L 575.898597 57.35199 
L 581.971554 66.992761 
L 588.044511 135.587871 
L 594.117468 219.808042 
L 600.190425 281.233079 
L 606.263382 296.249309 
L 612.336338 289.229759 
L 618.409295 293.05023 
L 624.482252 300.011308 
L 630.555209 295.204249 
L 636.628166 289.447849 
L 642.701123 294.438468 
L 648.774079 282.635086 
L 654.847036 220.970088 
L 660.919993 132.494802 
L 666.99295 45.061536 
L 671.851815 -1 
" clip-path="url(#p3a51f331d5)" style="fill: none; stroke: #ff0000; stroke-width: 1.8; stroke-linecap: square"/>
   </g>
   <g id="text_15">
    <!-- Velocity vs Time — Fingertips (Index, Thumb, Middle) -->
    <g transform="translate(219.117813 20.16) scale(0.12 -0.12)">
     <defs>
      <path id="DejaVuSans-56" d="M 1831 0 
L 50 4666 
L 709 4666 
L 2188 738 
L 3669 4666 
L 4325 4666 
L 2547 0 
L 1831 0 
z
" transform="scale(0.015625)"/>
      <path id="DejaVuSans-6c" d="M 603 4863 
L 1178 4863 
L 1178 0 
L 603 0 
L 603 4863 
z
" transform="scale(0.015625)"/>
      <path id="DejaVuSans-63" d="M 3122 3366 
L 3122 2828 
Q 2878 2963 2633 3030 
Q 2388 3097 2138 3097 
Q 1578 3097 1268 2742 
Q 959 2388 959 1747 
Q 959 1106 1268 751 
Q 1578 397 2138 397 
Q 2388 397 2633 464 
Q 2878 531 3122 666 
L 3122 134 
Q 2881 22 2623 -34 
Q 2366 -91 2075 -91 
Q 1284 -91 818 406 
Q 353 903 353 1747 
Q 353 2603 823 3093 
Q 1294 3584 2113 3584 
Q 2378 3584 2631 3529 
Q 2884 3475 3122 3366 
z
" transform="scale(0.015625)"/>
      <path id="DejaVuSans-79" d="M 2059 -325 
Q 1816 -950 1584 -1140 
Q 1353 -1331 966 -1331 
L 506 -1331 
L 506 -850 
L 844 -850 
Q 1081 -850 1212 -737 
Q 1344 -625 1503 -206 
L 1606 56 
L 191 3500 
L 800 3500 
L 1894 763 
L 2988 3500 
L 3597 3500 
L 2059 -325 
z
" transform="scale(0.015625)"/>
      <path id="DejaVuSans-76" d="M 191 3500 
L 800 3500 
L 1894 563 
L 2988 3500 
L 3597 3500 
L 2284 0 
L 1503 0 
L 191 3500 
z
" transform="scale(0.015625)"/>
      <path id="DejaVuSans-2014" d="M 313 1978 
L 6088 1978 
L 6088 1528 
L 313 1528 
L 313 1978 
z
" transform="scale(0.015625)"/>
      <path id="DejaVuSans-46" d="M 628 4666 
L 3309 4666 
L 3309 4134 
L 1259 4134 
L 1259 2759 
L 3109 2759 
L 3109 2228 
L 1259 2228 
L 1259 0 
L 628 0 
L 628 4666 
z
" transform="scale(0.015625)"/>
      <path id="DejaVuSans-67" d="M 2906 1791 
Q 2906 2416 2648 2759 
Q 2391 3103 1925 3103 
Q 1463 3103 1205 2759 
Q 947 2416 947 1791 
Q 947 1169 1205 825 
Q 1463 481 1925 481 
Q 2391 481 2648 825 
Q 2906 1169 2906 1791 
z
M 3481 434 
Q 3481 -459 3084 -895 
Q 2688 -1331 1869 -1331 
Q 1566 -1331 1297 -1286 
Q 1028 -1241 775 -1147 
L 775 -588 
Q 1028 -725 1275 -790 
Q 1522 -856 1778 -856 
Q 2344 -856 2625 -561 
Q 2906 -266 2906 331 
L 2906 616 
Q 2728 306 2450 153 
Q 2172 0 1784 0 
Q 1141 0 747 490 
Q 353 981 353 1791 
Q 353 2603 747 3093 
Q 1141 3584 1784 3584 
Q 2172 3584 2450 3431 
Q 2728 3278 2906 2969 
L 2906 3500 
L 3481 3500 
L 3481 434 
z
" transform="scale(0.015625)"/>
      <path id="DejaVuSans-49" d="M 628 4666 
L 1259 4666 
L 1259 0 
L 628 0 
L 628 4666 
z
" transform="scale(0.015625)"/>
      <path id="DejaVuSans-78" d="M 3513 3500 
L 2247 1797 
L 3578 0 
L 2900 0 
L 1881 1375 
L 863 0 
L 184 0 
L 1544 1831 
L 300 3500 
L 978 3500 
L 1906 2253 
L 2834 3500 
L 3513 3500 
z
" transform="scale(0.015625)"/>
      <path id="DejaVuSans-2c" d="M 750 794 
L 1409 794 
L 1409 256 
L 897 -744 
L 494 -744 
L 750 256 
L 750 794 
z
" transform="scale(0.015625)"/>
      <path id="DejaVuSans-68" d="M 3513 2113 
L 3513 0 
L 2938 0 
L 2938 2094 
Q 2938 2591 2744 2837 
Q 2550 3084 2163 3084 
Q 1697 3084 1428 2787 
Q 1159 2491 1159 1978 
L 1159 0 
L 581 0 
L 581 4863 
L 1159 4863 
L 1159 2956 
Q 1366 3272 1645 3428 
Q 1925 3584 2291 3584 
Q 2894 3584 3203 3211 
Q 3513 2838 3513 2113 
z
" transform="scale(0.015625)"/>
      <path id="DejaVuSans-62" d="M 3116 1747 
Q 3116 2381 2855 2742 
Q 2594 3103 2138 3103 
Q 1681 3103 1420 2742 
Q 1159 2381 1159 1747 
Q 1159 1113 1420 752 
Q 1681 391 2138 391 
Q 2594 391 2855 752 
Q 3116 1113 3116 1747 
z
M 1159 2969 
Q 1341 3281 1617 3432 
Q 1894 3584 2278 3584 
Q 2916 3584 3314 3078 
Q 3713 2572 3713 1747 
Q 3713 922 3314 415 
Q 2916 -91 2278 -91 
Q 1894 -91 1617 61 
Q 1341 213 1159 525 
L 1159 0 
L 581 0 
L 581 4863 
L 1159 4863 
L 1159 2969 
z
" transform="scale(0.015625)"/>
      <path id="DejaVuSans-4d" d="M 628 4666 
L 1569 4666 
L 2759 1491 
L 3956 4666 
L 4897 4666 
L 4897 0 
L 4281 0 
L 4281 4097 
L 3078 897 
L 2444 897 
L 1241 4097 
L 1241 0 
L 628 0 
L 628 4666 
z
" transform="scale(0.015625)"/>
     </defs>
     <use xlink:href="#DejaVuSans-56"/>
     <use xlink:href="#DejaVuSans-65" x="60.658203"/>
     <use xlink:href="#DejaVuSans-6c" x="122.181641"/>
     <use xlink:href="#DejaVuSans-6f" x="149.964844"/>
     <use xlink:href="#DejaVuSans-63" x="211.146484"/>
     <use xlink:href="#DejaVuSans-69" x="266.126953"/>
     <use xlink:href="#DejaVuSans-74" x="293.910156"/>
     <use xlink:href="#DejaVuSans-79" x="333.119141"/>
     <use xlink:href="#DejaVuSans-20" x="392.298828"/>
     <use xlink:href="#DejaVuSans-76" x="424.085938"/>
     <use xlink:href="#DejaVuSans-73" x="483.265625"/>
     <use xlink:href="#DejaVuSans-20" x="535.365234"/>
     <use xlink:href="#DejaVuSans-54" x="567.152344"/>
     <use xlink:href="#DejaVuSans-69" x="625.111328"/>
     <use xlink:href="#DejaVuSans-6d" x="652.894531"/>
     <use xlink:href="#DejaVuSans-65" x="750.306641"/>
     <use xlink:href="#DejaVuSans-20" x="811.830078"/>
     <use xlink:href="#DejaVuSans-2014" x="843.617188"/>
     <use xlink:href="#DejaVuSans-20" x="943.617188"/>
     <use xlink:href="#DejaVuSans-46" x="975.404297"/>
     <use xlink:href="#DejaVuSans-69" x="1025.673828"/>
     <use xlink:href="#DejaVuSans-6e" x="1053.457031"/>
     <use xlink:href="#DejaVuSans-67" x="1116.835938"/>
     <use xlink:href="#DejaVuSans-65" x="1180.3125"/>
     <use xlink:href="#DejaVuSans-72" x="1241.835938"/>
     <use xlink:href="#DejaVuSans-74" x="1282.949219"/>
     <use xlink:href="#DejaVuSans-69" x="1322.158203"/>
     <use xlink:href="#DejaVuSans-70" x="1349.941406"/>
     <use xlink:href="#DejaVuSans-73" x="1413.417969"/>
     <use xlink:href="#DejaVuSans-20" x="1465.517578"/>
     <use xlink:href="#DejaVuSans-28" x="1497.304688"/>
     <use xlink:href="#DejaVuSans-49" x="1536.318359"/>
     <use xlink:href="#DejaVuSans-6e" x="1565.810547"/>
     <use xlink:href="#DejaVuSans-64" x="1629.189453"/>
     <use xlink:href="#DejaVuSans-65" x="1692.666016"/>
     <use xlink:href="#DejaVuSans-78" x="1752.439453"/>
     <use xlink:href="#DejaVuSans-2c" x="1811.619141"/>
     <use xlink:href="#DejaVuSans-20" x="1843.40625"/>
     <use xlink:href="#DejaVuSans-54" x="1875.193359"/>
     <use xlink:href="#DejaVuSans-68" x="1936.277344"/>
     <use xlink:href="#DejaVuSans-75" x="1999.65625"/>
     <use xlink:href="#DejaVuSans-6d" x="2063.035156"/>
     <use xlink:href="#DejaVuSans-62" x="2160.447266"/>
     <use xlink:href="#DejaVuSans-2c" x="2223.923828"/>
     <use xlink:href="#DejaVuSans-20" x="2255.710938"/>
     <use xlink:href="#DejaVuSans-4d" x="2287.498047"/>
     <use xlink:href="#DejaVuSans-69" x="2373.777344"/>
     <use xlink:href="#DejaVuSans-64" x="2401.560547"/>
     <use xlink:href="#DejaVuSans-64" x="2465.037109"/>
     <use xlink:href="#DejaVuSans-6c" x="2528.513672"/>
     <use xlink:href="#DejaVuSans-65" x="2556.296875"/>
     <use xlink:href="#DejaVuSans-29" x="2617.820312"/>
    </g>
   </g>
   <g id="legend_1">
    <g id="line2d_33">
     <path d="M 471.51625 36.63875 
L 479.51625 36.63875 
L 487.51625 36.63875 
" style="fill: none; stroke: #000000; stroke-width: 1.8; stroke-linecap: square"/>
    </g>
    <g id="text_16">
     <!-- Left index (filtered) -->
     <g transform="translate(493.91625 39.43875) scale(0.08 -0.08)">
      <defs>
       <path id="DejaVuSans-4c" d="M 628 4666 
L 1259 4666 
L 1259 531 
L 3531 531 
L 3531 0 
L 628 0 
L 628 4666 
z
" transform="scale(0.015625)"/>
       <path id="DejaVuSans-66" d="M 2375 4863 
L 2375 4384 
L 1825 4384 
Q 1516 4384 1395 4259 
Q 1275 4134 1275 3809 
L 1275 3500 
L 2222 3500 
L 2222 3053 
L 1275 3053 
L 1275 0 
L 697 0 
L 697 3053 
L 147 3053 
L 147 3500 
L 697 3500 
L 697 3744 
Q 697 4328 969 4595 
Q 1241 4863 1831 4863 
L 2375 4863 
z
" transform="scale(0.015625)"/>
      </defs>
      <use xlink:href="#DejaVuSans-4c"/>
      <use xlink:href="#DejaVuSans-65" x="53.962891"/>
      <use xlink:href="#DejaVuSans-66" x="115.486328"/>
      <use xlink:href="#DejaVuSans-74" x="148.941406"/>
      <use xlink:href="#DejaVuSans-20" x="188.150391"/>
      <use xlink:href="#DejaVuSans-69" x="219.9375"/>
      <use xlink:href="#DejaVuSans-6e" x="247.720703"/>
      <use xlink:href="#DejaVuSans-64" x="311.099609"/>
      <use xlink:href="#DejaVuSans-65" x="374.576172"/>
      <use xlink:href="#DejaVuSans-78" x="434.349609"/>
      <use xlink:href="#DejaVuSans-20" x="493.529297"/>
      <use xlink:href="#DejaVuSans-28" x="525.316406"/>
      <use xlink:href="#DejaVuSans-66" x="564.330078"/>
      <use xlink:href="#DejaVuSans-69" x="599.535156"/>
      <use xlink:href="#DejaVuSans-6c" x="627.318359"/>
      <use xlink:href="#DejaVuSans-74" x="655.101562"/>
      <use xlink:href="#DejaVuSans-65" x="694.310547"/>
      <use xlink:href="#DejaVuSans-72" x="755.833984"/>
      <use xlink:href="#DejaVuSans-65" x="794.697266"/>
      <use xlink:href="#DejaVuSans-64" x="856.220703"/>
      <use xlink:href="#DejaVuSans-29" x="919.697266"/>
     </g>
    </g>
    <g id="line2d_34">
     <path d="M 471.51625 48.38125 
L 479.51625 48.38125 
L 487.51625 48.38125 
" style="fill: none; stroke: #000000; stroke-width: 1.8; stroke-linecap: square"/>
    </g>
    <g id="text_17">
     <!-- Right index (filtered) -->
     <g transform="translate(493.91625 51.18125) scale(0.08 -0.08)">
      <defs>
       <path id="DejaVuSans-52" d="M 2841 2188 
Q 3044 2119 3236 1894 
Q 3428 1669 3622 1275 
L 4263 0 
L 3584 0 
L 2988 1197 
Q 2756 1666 2539 1819 
Q 2322 1972 1947 1972 
L 1259 1972 
L 1259 0 
L 628 0 
L 628 4666 
L 2053 4666 
Q 2853 4666 3247 4331 
Q 3641 3997 3641 3322 
Q 3641 2881 3436 2590 
Q 3231 2300 2841 2188 
z
M 1259 4147 
L 1259 2491 
L 2053 2491 
Q 2509 2491 2742 2702 
Q 2975 2913 2975 3322 
Q 2975 3731 2742 3939 
Q 2509 4147 2053 4147 
L 1259 4147 
z
" transform="scale(0.015625)"/>
      </defs>
      <use xlink:href="#DejaVuSans-52"/>
      <use xlink:href="#DejaVuSans-69" x="69.482422"/>
      <use xlink:href="#DejaVuSans-67" x="97.265625"/>
      <use xlink:href="#DejaVuSans-68" x="160.742188"/>
      <use xlink:href="#DejaVuSans-74" x="224.121094"/>
      <use xlink:href="#DejaVuSans-20" x="263.330078"/>
      <use xlink:href="#DejaVuSans-69" x="295.117188"/>
      <use xlink:href="#DejaVuSans-6e" x="322.900391"/>
      <use xlink:href="#DejaVuSans-64" x="386.279297"/>
      <use xlink:href="#DejaVuSans-65" x="449.755859"/>
      <use xlink:href="#DejaVuSans-78" x="509.529297"/>
      <use xlink:href="#DejaVuSans-20" x="568.708984"/>
      <use xlink:href="#DejaVuSans-28" x="600.496094"/>
      <use xlink:href="#DejaVuSans-66" x="639.509766"/>
      <use xlink:href="#DejaVuSans-69" x="674.714844"/>
      <use xlink:href="#DejaVuSans-6c" x="702.498047"/>
      <use xlink:href="#DejaVuSans-74" x="730.28125"/>
      <use xlink:href="#DejaVuSans-65" x="769.490234"/>
      <use xlink:href="#DejaVuSans-72" x="831.013672"/>
      <use xlink:href="#DejaVuSans-65" x="869.876953"/>
      <use xlink:href="#DejaVuSans-64" x="931.400391"/>
      <use xlink:href="#DejaVuSans-29" x="994.876953"/>
     </g>
    </g>
    <g id="line2d_35">
     <path d="M 592.62875 36.63875 
L 600.62875 36.63875 
L 608.62875 36.63875 
" style="fill: none; stroke: #ff0000; stroke-width: 1.8; stroke-linecap: square"/>
    </g>
    <g id="text_18">
     <!-- Left thumb (filtered) -->
     <g transform="translate(615.02875 39.43875) scale(0.08 -0.08)">
      <use xlink:href="#DejaVuSans-4c"/>
      <use xlink:href="#DejaVuSans-65" x="53.962891"/>
      <use xlink:href="#DejaVuSans-66" x="115.486328"/>
      <use xlink:href="#DejaVuSans-74" x="148.941406"/>
      <use xlink:href="#DejaVuSans-20" x="188.150391"/>
      <use xlink:href="#DejaVuSans-74" x="219.9375"/>
      <use xlink:href="#DejaVuSans-68" x="259.146484"/>
      <use xlink:href="#DejaVuSans-75" x="322.525391"/>
      <use xlink:href="#DejaVuSans-6d" x="385.904297"/>
      <use xlink:href="#DejaVuSans-62" x="483.316406"/>
      <use xlink:href="#DejaVuSans-20" x="546.792969"/>
      <use xlink:href="#DejaVuSans-28" x="578.580078"/>
      <use xlink:href="#DejaVuSans-66" x="617.59375"/>
      <use xlink:href="#DejaVuSans-69" x="652.798828"/>
      <use xlink:href="#DejaVuSans-6c" x="680.582031"/>
      <use xlink:href="#DejaVuSans-74" x="708.365234"/>
      <use xlink:href="#DejaVuSans-65" x="747.574219"/>
      <use xlink:href="#DejaVuSans-72" x="809.097656"/>
      <use xlink:href="#DejaVuSans-65" x="847.960938"/>
      <use xlink:href="#DejaVuSans-64" x="909.484375"/>
      <use xlink:href="#DejaVuSans-29" x="972.960938"/>
     </g>
    </g>
    <g id="line2d_36">
     <path d="M 592.62875 48.38125 
L 600.62875 48.38125 
L 608.62875 48.38125 
" style="fill: none; stroke: #ff0000; stroke-width: 1.8; stroke-linecap: square"/>
    </g>
    <g id="text_19">
     <!-- Right thumb (filtered) -->
     <g transform="translate(615.02875 51.18125) scale(0.08 -0.08)">
      <use xlink:href="#DejaVuSans-52"/>
      <use xlink:href="#DejaVuSans-69" x="69.482422"/>
      <use xlink:href="#DejaVuSans-67" x="97.265625"/>
      <use xlink:href="#DejaVuSans-68" x="160.742188"/>
      <use xlink:href="#DejaVuSans-74" x="224.121094"/>
      <use xlink:href="#DejaVuSans-20" x="263.330078"/>
      <use xlink:href="#DejaVuSans-74" x="295.117188"/>
      <use xlink:href="#DejaVuSans-68" x="334.326172"/>
      <use xlink:href="#DejaVuSans-75" x="397.705078"/>
      <use xlink:href="#DejaVuSans-6d" x="461.083984"/>
      <use xlink:href="#DejaVuSans-62" x="558.496094"/>
      <use xlink:href="#DejaVuSans-20" x="621.972656"/>
      <use xlink:href="#DejaVuSans-28" x="653.759766"/>
      <use xlink:href="#DejaVuSans-66" x="692.773438"/>
      <use xlink:href="#DejaVuSans-69" x="727.978516"/>
      <use xlink:href="#DejaVuSans-6c" x="755.761719"/>
      <use xlink:href="#DejaVuSans-74" x="783.544922"/>
      <use xlink:href="#DejaVuSans-65" x="822.753906"/>
      <use xlink:href="#DejaVuSans-72" x="884.277344"/>
      <use xlink:href="#DejaVuSans-65" x="923.140625"/>
      <use xlink:href="#DejaVuSans-64" x="984.664062"/>
      <use xlink:href="#DejaVuSans-29" x="1048.140625"/>
     </g>
    </g>
   </g>
  </g>
 </g>
 <defs>
  <clipPath id="p3a51f331d5">
   <rect x="47.855" y="26.16" width="661.345" height="277.48"/>
  </clipPath>
 </defs>
</svg>
